<svg width="500" height="335" viewBox="0 0 500 335" fill="none" xmlns="http://www.w3.org/2000/svg">
<path d="M103.804 7.07349H19.0684V230.965H103.804V7.07349Z" fill="white" stroke="#263238" stroke-linecap="round" stroke-linejoin="round"/>
<path d="M101.327 11.8669H21.5283V226.171H101.327V11.8669Z" fill="white" stroke="#263238" stroke-linecap="round" stroke-linejoin="round"/>
<path d="M193.359 7.07349H108.623V230.965H193.359V7.07349Z" fill="white" stroke="#263238" stroke-linecap="round" stroke-linejoin="round"/>
<path d="M190.882 11.8669H111.083V226.171H190.882V11.8669Z" fill="white" stroke="#263238" stroke-linecap="round" stroke-linejoin="round"/>
<path d="M282.914 7.07349H198.178V230.965H282.914V7.07349Z" fill="white" stroke="#263238" stroke-linecap="round" stroke-linejoin="round"/>
<path d="M280.436 11.8669H200.638V226.171H280.436V11.8669Z" fill="white" stroke="#263238" stroke-linecap="round" stroke-linejoin="round"/>
<path d="M200.942 86.4663C216.912 79.0689 232.747 72.9396 247.897 68.8647" stroke="#263238" stroke-linecap="round" stroke-linejoin="round"/>
<path d="M111.066 138.679C135.719 121.931 162.983 105.125 190.189 91.6233" stroke="#263238" stroke-linecap="round" stroke-linejoin="round"/>
<path d="M21.5962 206.405C21.5962 206.405 51.4224 180.24 100.786 145.764" stroke="#263238" stroke-linecap="round" stroke-linejoin="round"/>
<path d="M54.1699 181.001C54.1699 181.001 62.455 124.273 78.6024 79.3311" stroke="#263238" stroke-linecap="round" stroke-linejoin="round"/>
<path d="M65.5067 120.782C65.5067 120.782 61.5839 86.7536 64.6613 64.4939" stroke="#263238" stroke-linecap="round" stroke-linejoin="round"/>
<path d="M224.335 76.7525C238.454 73.8767 253.121 75.555 266.225 81.546" stroke="#263238" stroke-linecap="round" stroke-linejoin="round"/>
<path d="M123.545 130.859C123.545 130.859 121.795 84.1752 128.338 56.2512" stroke="#263238" stroke-linecap="round" stroke-linejoin="round"/>
<path d="M123.976 98.0991C123.976 98.0991 164.555 44.838 178.082 30.0264" stroke="#263238" stroke-linecap="round" stroke-linejoin="round"/>
<path d="M111.083 171.21C125.252 172.774 141.112 176.224 156.27 183.182" stroke="#263238" stroke-linecap="round" stroke-linejoin="round"/>
<path d="M65.0757 171.836C76.9779 170.136 89.0223 169.651 101.023 170.39" stroke="#263238" stroke-linecap="round" stroke-linejoin="round"/>
<path d="M268.947 77.9867C269.389 77.0464 269.618 76.0202 269.618 74.9813C269.618 73.9423 269.389 72.9162 268.947 71.9758C267.443 68.7125 263.182 69.9722 262.429 73.227C261.677 76.4819 264.687 77.7331 264.433 78.7392C264.179 79.7452 260.924 78.2319 258.921 79.9904C256.917 81.7488 255.92 83.9976 256.672 84.4964C257.913 85.6065 259.513 86.231 261.178 86.2549C263.714 86.2549 264.94 83 265.405 83.7186C265.87 84.4372 263.9 87.4807 264.399 88.9856C264.898 90.4904 266.656 91.5218 268.406 92.494C270.156 93.4663 273.42 89.2307 272.168 86.9819C270.917 84.7331 268.914 85.2235 269.632 83.9723C270.351 82.721 271.129 83.9723 273.639 84.7247C276.15 85.4771 277.647 81.715 277.393 79.965C277.139 78.215 274.637 77.4288 272.887 78.2065C271.137 78.9843 268.947 77.9867 268.947 77.9867Z" fill="white" stroke="#263238" stroke-linecap="round" stroke-linejoin="round"/>
<path d="M265.98 77.3696L266.267 78.9506" stroke="#263238" stroke-linecap="round" stroke-linejoin="round"/>
<path d="M269.015 79.3901L267.713 80.5399" stroke="#263238" stroke-linecap="round" stroke-linejoin="round"/>
<path d="M269.877 81.5544L267.857 82.8479" stroke="#263238" stroke-linecap="round" stroke-linejoin="round"/>
<path d="M265.261 82.5603L262.522 82.8478" stroke="#263238" stroke-linecap="round" stroke-linejoin="round"/>
<path d="M263.241 80.3962L265.118 80.8274" stroke="#263238" stroke-linecap="round" stroke-linejoin="round"/>
<path d="M266.851 84.1499L266.994 86.1704" stroke="#263238" stroke-linecap="round" stroke-linejoin="round"/>
<path d="M250.872 63.8513C251.649 63.1619 252.265 62.3099 252.675 61.3558C253.086 60.4017 253.281 59.3689 253.248 58.3308C253.155 54.7462 248.742 54.2136 246.764 56.9105C244.785 59.6073 247.06 61.983 246.434 62.7607C245.808 63.5385 243.407 60.9177 240.871 61.7293C238.335 62.5409 236.526 64.2656 237.016 64.9842C237.723 66.4889 238.947 67.6892 240.465 68.3658C242.765 69.3634 245.208 66.861 245.369 67.7487C245.529 68.6364 242.503 70.6062 242.367 72.1871C242.232 73.768 243.45 75.3828 244.667 76.9975C245.884 78.6123 250.585 75.983 250.297 73.4214C250.01 70.8598 247.998 70.5216 249.182 69.6678C250.365 68.8139 250.56 70.2596 252.563 71.9419C254.567 73.6243 257.441 70.7668 257.898 69.0506C258.354 67.3344 256.359 65.669 254.448 65.669C252.538 65.669 250.872 63.8513 250.872 63.8513Z" fill="white" stroke="#263238" stroke-linecap="round" stroke-linejoin="round"/>
<path d="M248.395 62.1184L248.032 63.6909" stroke="#263238" stroke-linecap="round" stroke-linejoin="round"/>
<path d="M250.374 65.1702L248.725 65.7112" stroke="#263238" stroke-linecap="round" stroke-linejoin="round"/>
<path d="M250.314 67.4951L247.947 67.8925" stroke="#263238" stroke-linecap="round" stroke-linejoin="round"/>
<path d="M245.673 66.5991L243.044 65.7791" stroke="#263238" stroke-linecap="round" stroke-linejoin="round"/>
<path d="M244.675 63.8176L246.231 64.9505" stroke="#263238" stroke-linecap="round" stroke-linejoin="round"/>
<path d="M246.502 68.6873L245.842 70.5979" stroke="#263238" stroke-linecap="round" stroke-linejoin="round"/>
<path d="M180.83 28.082C181.607 27.3925 182.222 26.5405 182.633 25.5864C183.044 24.6323 183.239 23.5996 183.206 22.5614C183.113 18.9769 178.708 18.4442 176.73 21.1327C174.751 23.8211 177.017 26.2051 176.391 26.9914C175.766 27.7776 173.365 25.1484 170.837 25.96C168.309 26.7716 166.492 28.4962 166.982 29.2148C167.689 30.7196 168.913 31.9199 170.431 32.5965C172.731 33.5856 175.166 31.0916 175.335 31.9793C175.504 32.867 172.469 34.8368 172.334 36.4177C172.198 37.9987 173.416 39.6134 174.625 41.2282C175.834 42.8429 180.542 40.2137 180.255 37.6521C179.968 35.0904 177.956 34.7523 179.148 33.8984C180.34 33.0445 180.526 34.4902 182.529 36.1726C184.533 37.855 187.399 34.9975 187.864 33.2813C188.329 31.5651 186.325 29.8996 184.414 29.8996C182.504 29.8996 180.83 28.082 180.83 28.082Z" fill="white" stroke="#263238" stroke-linecap="round" stroke-linejoin="round"/>
<path d="M178.353 26.3403L177.989 27.9128" stroke="#263238" stroke-linecap="round" stroke-linejoin="round"/>
<path d="M180.339 29.4009L178.691 29.9419" stroke="#263238" stroke-linecap="round" stroke-linejoin="round"/>
<path d="M180.28 31.7256L177.905 32.1229" stroke="#263238" stroke-linecap="round" stroke-linejoin="round"/>
<path d="M175.639 30.8296L173.001 30.0095" stroke="#263238" stroke-linecap="round" stroke-linejoin="round"/>
<path d="M174.641 28.0481L176.188 29.181" stroke="#263238" stroke-linecap="round" stroke-linejoin="round"/>
<path d="M176.468 32.9177L175.8 34.8284" stroke="#263238" stroke-linecap="round" stroke-linejoin="round"/>
<path d="M132.852 53.3344C133.629 52.645 134.245 51.793 134.655 50.8389C135.066 49.8848 135.261 48.852 135.228 47.8138C135.135 44.2293 130.73 43.6967 128.752 46.3851C126.774 49.0735 129.04 51.4576 128.414 52.2438C127.788 53.0301 125.387 50.3924 122.86 51.2124C120.332 52.0325 118.514 53.7064 119.004 54.4673C119.714 55.9702 120.937 57.1698 122.454 57.8489C124.753 58.838 127.188 56.3441 127.357 57.2318C127.526 58.1195 124.491 60.0893 124.356 61.6702C124.221 63.2511 125.438 64.8659 126.647 66.4721C127.856 68.0784 132.565 65.4661 132.277 62.896C131.99 60.326 129.978 59.9963 131.17 59.1509C132.362 58.3054 132.548 59.7426 134.552 61.425C136.555 63.1074 139.421 60.2414 139.886 58.5337C140.351 56.826 138.348 55.152 136.437 55.152C134.526 55.152 132.852 53.3344 132.852 53.3344Z" fill="white" stroke="#263238" stroke-linecap="round" stroke-linejoin="round"/>
<path d="M130.376 51.593L130.012 53.1655" stroke="#263238" stroke-linecap="round" stroke-linejoin="round"/>
<path d="M132.362 54.6448L130.714 55.1943" stroke="#263238" stroke-linecap="round" stroke-linejoin="round"/>
<path d="M132.303 56.9783L129.936 57.3756" stroke="#263238" stroke-linecap="round" stroke-linejoin="round"/>
<path d="M127.662 56.082L125.024 55.262" stroke="#263238" stroke-linecap="round" stroke-linejoin="round"/>
<path d="M126.664 53.2922L128.211 54.4335" stroke="#263238" stroke-linecap="round" stroke-linejoin="round"/>
<path d="M128.49 58.1702L127.822 60.0808" stroke="#263238" stroke-linecap="round" stroke-linejoin="round"/>
<path d="M128.363 96.197C129.14 95.5075 129.756 94.6555 130.166 93.7014C130.577 92.7473 130.772 91.7145 130.739 90.6764C130.646 87.0918 126.241 86.5592 124.263 89.2476C122.285 91.9361 124.551 94.3201 123.925 95.1064C123.299 95.8926 120.898 93.2549 118.371 94.075C115.843 94.895 114.017 96.5689 114.515 97.3298C115.222 98.8345 116.446 100.035 117.965 100.711C120.264 101.701 122.699 99.2066 122.868 100.094C123.037 100.982 119.994 102.952 119.867 104.533C119.74 106.114 120.941 107.728 122.158 109.343C123.375 110.958 128.076 108.329 127.789 105.759C127.501 103.189 125.489 102.867 126.681 102.013C127.873 101.16 128.059 102.605 130.063 104.288C132.066 105.97 134.932 103.112 135.397 101.396C135.862 99.6801 133.859 98.0146 131.948 98.0146C130.037 98.0146 128.363 96.197 128.363 96.197Z" fill="white" stroke="#263238" stroke-linecap="round" stroke-linejoin="round"/>
<path d="M125.895 94.4807L125.531 96.0532" stroke="#263238" stroke-linecap="round" stroke-linejoin="round"/>
<path d="M127.881 97.5413L126.233 98.0823" stroke="#263238" stroke-linecap="round" stroke-linejoin="round"/>
<path d="M127.822 99.866L125.447 100.263" stroke="#263238" stroke-linecap="round" stroke-linejoin="round"/>
<path d="M123.181 98.97L120.543 98.1499" stroke="#263238" stroke-linecap="round" stroke-linejoin="round"/>
<path d="M122.175 96.1799L123.73 97.3212" stroke="#263238" stroke-linecap="round" stroke-linejoin="round"/>
<path d="M124.01 101.058L123.342 102.969" stroke="#263238" stroke-linecap="round" stroke-linejoin="round"/>
<path d="M157.852 185.955C158.561 186.713 159.429 187.306 160.393 187.692C161.357 188.077 162.395 188.246 163.431 188.187C167.016 187.992 167.43 183.571 164.683 181.668C161.935 179.766 159.661 182.091 158.815 181.491C157.97 180.891 160.582 178.414 159.661 175.903C158.739 173.392 157.048 171.676 156.279 172.141C154.793 172.891 153.624 174.147 152.982 175.683C152.052 178.008 154.614 180.383 153.734 180.569C152.855 180.755 150.801 177.779 149.22 177.686C147.639 177.593 146.058 178.862 144.477 180.113C142.896 181.364 145.644 185.98 148.205 185.65C150.767 185.321 151.038 183.266 151.925 184.433C152.813 185.6 151.367 185.828 149.744 187.874C148.121 189.92 151.054 192.718 152.779 193.132C154.504 193.546 156.161 191.501 156.076 189.59C155.992 187.679 157.852 185.955 157.852 185.955Z" fill="white" stroke="#263238" stroke-linecap="round" stroke-linejoin="round"/>
<path d="M159.517 183.435L157.936 183.114" stroke="#263238" stroke-linecap="round" stroke-linejoin="round"/>
<path d="M156.524 185.498L155.933 183.866" stroke="#263238" stroke-linecap="round" stroke-linejoin="round"/>
<path d="M154.191 185.506L153.734 183.148" stroke="#263238" stroke-linecap="round" stroke-linejoin="round"/>
<path d="M154.96 180.84L155.704 178.185" stroke="#263238" stroke-linecap="round" stroke-linejoin="round"/>
<path d="M157.716 179.766L156.625 181.347" stroke="#263238" stroke-linecap="round" stroke-linejoin="round"/>
<path d="M152.897 181.728L150.97 181.119" stroke="#263238" stroke-linecap="round" stroke-linejoin="round"/>
<path d="M82.043 81.7573C82.754 82.5156 83.6233 83.108 84.5891 83.4923C85.555 83.8766 86.5936 84.0434 87.6312 83.9808C91.2073 83.7948 91.6215 79.3733 88.8739 77.4711C86.1264 75.5689 83.8522 77.8938 83.0152 77.2935C82.1783 76.6933 84.7737 74.2162 83.8606 71.7053C82.9476 69.1945 81.2483 67.4276 80.479 67.9433C78.991 68.6909 77.821 69.9479 77.1819 71.4855C76.2604 73.8104 78.822 76.1776 77.9343 76.3636C77.0466 76.5496 75.0007 73.5822 73.4198 73.4892C71.8389 73.3962 70.2579 74.6558 68.677 75.9155C67.0961 77.1752 69.8521 81.7742 72.4053 81.4445C74.9584 81.1148 75.2374 79.0689 76.1251 80.2271C77.0128 81.3853 75.5671 81.6305 73.9439 83.6764C72.3208 85.7223 75.2543 88.5122 76.979 88.9264C78.7036 89.3407 80.3606 87.2948 80.2761 85.3926C80.1915 83.4904 82.043 81.7573 82.043 81.7573Z" fill="white" stroke="#263238" stroke-linecap="round" stroke-linejoin="round"/>
<path d="M83.7173 79.2295L82.1279 78.9167" stroke="#263238" stroke-linecap="round" stroke-linejoin="round"/>
<path d="M80.7158 81.3008L80.124 79.6692" stroke="#263238" stroke-linecap="round" stroke-linejoin="round"/>
<path d="M78.3828 81.3007L77.9263 78.9504" stroke="#263238" stroke-linecap="round" stroke-linejoin="round"/>
<path d="M79.1519 76.6426L79.9043 73.988" stroke="#263238" stroke-linecap="round" stroke-linejoin="round"/>
<path d="M81.9164 75.5688L80.8174 77.1498" stroke="#263238" stroke-linecap="round" stroke-linejoin="round"/>
<path d="M77.0892 77.5302L75.1616 76.9131" stroke="#263238" stroke-linecap="round" stroke-linejoin="round"/>
<path d="M67.4938 67.0557C68.2047 67.814 69.074 68.4063 70.0399 68.7906C71.0057 69.1749 72.0444 69.3417 73.082 69.2791C76.6665 69.0931 77.0808 64.6716 74.3332 62.7694C71.5856 60.8672 69.303 63.1921 68.466 62.5919C67.629 61.9916 70.2329 59.5146 69.3114 57.0037C68.3899 54.4928 66.6991 52.7259 65.9298 53.2416C64.4418 53.9892 63.2718 55.2462 62.6326 56.7839C61.7027 59.1088 64.2643 61.4759 63.3851 61.6704C62.5058 61.8648 60.443 58.8805 58.8621 58.7875C57.2812 58.6945 55.7002 59.9542 54.1193 61.2138C52.5384 62.4735 55.2945 67.0726 57.8561 66.7429C60.4177 66.4131 60.6882 64.3672 61.5759 65.5339C62.4636 66.7006 61.0179 66.9288 59.3947 68.9748C57.7715 71.0207 60.7051 73.8105 62.4213 74.2332C64.1375 74.6559 65.8029 72.5931 65.7184 70.6909C65.6339 68.7888 67.4938 67.0557 67.4938 67.0557Z" fill="white" stroke="#263238" stroke-linecap="round" stroke-linejoin="round"/>
<path d="M69.2015 64.5361L67.6206 64.2148" stroke="#263238" stroke-linecap="round" stroke-linejoin="round"/>
<path d="M66.2002 66.5989L65.6084 64.9673" stroke="#263238" stroke-linecap="round" stroke-linejoin="round"/>
<path d="M63.8751 66.6075L63.4102 64.2488" stroke="#263238" stroke-linecap="round" stroke-linejoin="round"/>
<path d="M64.6445 61.9407L65.3885 59.2861" stroke="#263238" stroke-linecap="round" stroke-linejoin="round"/>
<path d="M67.4008 60.8672L66.3018 62.4481" stroke="#263238" stroke-linecap="round" stroke-linejoin="round"/>
<path d="M62.582 62.8286L60.646 62.2114" stroke="#263238" stroke-linecap="round" stroke-linejoin="round"/>
<path d="M70.3342 127.376C71.0451 128.135 71.9142 128.728 72.8799 129.114C73.8456 129.499 74.8843 129.668 75.9224 129.608C79.5069 129.413 79.9127 124.992 77.1651 123.09C74.4175 121.187 72.1434 123.512 71.3064 122.912C70.4694 122.312 73.0733 119.835 72.1518 117.324C71.2303 114.813 69.5395 113.055 68.7702 113.562C67.2822 114.309 66.1122 115.566 65.473 117.104C64.5431 119.429 67.1047 121.805 66.217 121.991C65.3293 122.177 63.2834 119.201 61.7025 119.108C60.1216 119.015 58.5406 120.283 56.9597 121.534C55.3788 122.785 58.1349 127.401 60.688 127.072C63.2412 126.742 63.5286 124.687 64.4163 125.854C65.304 127.021 63.8583 127.249 62.2267 129.295C60.595 131.341 63.5371 134.139 65.2617 134.553C66.9863 134.968 68.6433 132.922 68.5588 131.011C68.4743 129.1 70.3342 127.376 70.3342 127.376Z" fill="white" stroke="#263238" stroke-linecap="round" stroke-linejoin="round"/>
<path d="M72.0082 124.856L70.4272 124.535" stroke="#263238" stroke-linecap="round" stroke-linejoin="round"/>
<path d="M69.0068 126.919L68.415 125.288" stroke="#263238" stroke-linecap="round" stroke-linejoin="round"/>
<path d="M66.6733 126.928L66.2168 124.569" stroke="#263238" stroke-linecap="round" stroke-linejoin="round"/>
<path d="M67.4512 122.261L68.1951 119.606" stroke="#263238" stroke-linecap="round" stroke-linejoin="round"/>
<path d="M70.2074 121.188L69.1084 122.768" stroke="#263238" stroke-linecap="round" stroke-linejoin="round"/>
<path d="M65.3886 123.149L63.4526 122.54" stroke="#263238" stroke-linecap="round" stroke-linejoin="round"/>
<path d="M165.934 47.5266C166.643 48.2843 167.511 48.8763 168.476 49.2605C169.44 49.6448 170.477 49.812 171.513 49.75C175.098 49.5641 175.512 45.1425 172.765 43.2404C170.017 41.3382 167.743 43.6631 166.897 43.0628C166.052 42.4626 168.664 39.9855 167.743 37.4746C166.821 34.9638 165.13 33.1968 164.361 33.7125C162.875 34.4626 161.706 35.7188 161.064 37.2548C160.134 39.5797 162.696 41.9469 161.816 42.1413C160.937 42.3358 158.883 39.3515 157.302 39.2585C155.721 39.1655 154.14 40.4251 152.559 41.6848C150.978 42.9445 153.726 47.5435 156.287 47.2138C158.849 46.8841 159.12 44.8382 160.007 46.0049C160.895 47.1715 159.449 47.3998 157.826 49.4457C156.203 51.4916 159.137 54.2815 160.861 54.7042C162.586 55.1269 164.243 53.0641 164.158 51.1619C164.074 49.2597 165.934 47.5266 165.934 47.5266Z" fill="white" stroke="#263238" stroke-linecap="round" stroke-linejoin="round"/>
<path d="M167.599 45.007L166.018 44.6858" stroke="#263238" stroke-linecap="round" stroke-linejoin="round"/>
<path d="M164.606 47.0699L164.015 45.4382" stroke="#263238" stroke-linecap="round" stroke-linejoin="round"/>
<path d="M162.273 47.0784L161.816 44.7197" stroke="#263238" stroke-linecap="round" stroke-linejoin="round"/>
<path d="M163.042 42.4117L163.786 39.7571" stroke="#263238" stroke-linecap="round" stroke-linejoin="round"/>
<path d="M165.798 41.3381L164.708 42.9191" stroke="#263238" stroke-linecap="round" stroke-linejoin="round"/>
<path d="M160.979 43.2995L159.052 42.6824" stroke="#263238" stroke-linecap="round" stroke-linejoin="round"/>
<path d="M140.444 85.2827C141.156 86.0396 142.026 86.631 142.991 87.0152C143.957 87.3994 144.995 87.5669 146.033 87.5061C149.617 87.3117 150.023 82.8901 147.275 80.988C144.528 79.0858 142.254 81.4107 141.417 80.8104C140.58 80.2102 143.175 77.7416 142.262 75.2307C141.349 72.7198 139.65 70.9529 138.88 71.4602C137.396 72.2126 136.227 73.4681 135.583 75.0024C134.662 77.3358 137.223 79.7029 136.336 79.8889C135.448 80.0749 133.402 77.0991 131.821 77.0061C130.24 76.9131 128.659 78.1812 127.078 79.4324C125.497 80.6836 128.254 85.2996 130.807 84.9699C133.36 84.6402 133.647 82.5943 134.526 83.7525C135.406 84.9107 133.977 85.1474 132.345 87.2018C130.714 89.2561 133.656 92.0375 135.38 92.4518C137.105 92.866 138.762 90.8201 138.677 88.9095C138.593 86.9989 140.444 85.2827 140.444 85.2827Z" fill="white" stroke="#263238" stroke-linecap="round" stroke-linejoin="round"/>
<path d="M142.119 82.7549L140.538 82.4336" stroke="#263238" stroke-linecap="round" stroke-linejoin="round"/>
<path d="M139.117 84.8177L138.525 83.186" stroke="#263238" stroke-linecap="round" stroke-linejoin="round"/>
<path d="M136.784 84.8262L136.327 82.4675" stroke="#263238" stroke-linecap="round" stroke-linejoin="round"/>
<path d="M137.553 80.1595L138.306 77.5049" stroke="#263238" stroke-linecap="round" stroke-linejoin="round"/>
<path d="M140.317 79.0857L139.218 80.6666" stroke="#263238" stroke-linecap="round" stroke-linejoin="round"/>
<path d="M135.499 81.0472L133.562 80.4385" stroke="#263238" stroke-linecap="round" stroke-linejoin="round"/>
<path d="M228.173 80.2693C228.885 81.0262 229.754 81.6176 230.72 82.0017C231.686 82.3859 232.724 82.5535 233.761 82.4927C237.337 82.2982 237.751 77.8767 235.004 75.9745C232.256 74.0724 229.982 76.4057 229.145 75.797C228.308 75.1883 230.904 72.7282 229.991 70.2173C229.077 67.7064 227.378 65.9395 226.609 66.4467C225.123 67.1968 223.953 68.453 223.312 69.989C222.39 72.3224 224.952 74.6895 224.064 74.8755C223.176 75.0615 221.131 72.0856 219.55 72.0011C217.969 71.9166 216.388 73.1678 214.807 74.4274C213.226 75.6871 215.982 80.2862 218.535 79.9564C221.088 79.6267 221.367 77.5808 222.255 78.7391C223.143 79.8973 221.697 80.134 220.074 82.1883C218.451 84.2427 221.384 87.0241 223.109 87.4384C224.834 87.8526 226.491 85.8067 226.406 83.8961C226.321 81.9854 228.173 80.2693 228.173 80.2693Z" fill="white" stroke="#263238" stroke-linecap="round" stroke-linejoin="round"/>
<path d="M229.847 77.7417L228.258 77.4204" stroke="#263238" stroke-linecap="round" stroke-linejoin="round"/>
<path d="M226.846 79.813L226.254 78.1729" stroke="#263238" stroke-linecap="round" stroke-linejoin="round"/>
<path d="M224.512 79.8128L224.056 77.4541" stroke="#263238" stroke-linecap="round" stroke-linejoin="round"/>
<path d="M225.282 75.1463L226.034 72.4917" stroke="#263238" stroke-linecap="round" stroke-linejoin="round"/>
<path d="M228.046 74.0725L226.947 75.6534" stroke="#263238" stroke-linecap="round" stroke-linejoin="round"/>
<path d="M223.219 76.034L221.291 75.4253" stroke="#263238" stroke-linecap="round" stroke-linejoin="round"/>
<path d="M140.876 177.56C141.587 178.319 142.456 178.912 143.421 179.298C144.387 179.683 145.426 179.852 146.464 179.792C150.048 179.597 150.454 175.176 147.707 173.273C144.959 171.371 142.685 173.696 141.848 173.096C141.011 172.496 143.615 170.019 142.693 167.508C141.772 164.997 140.081 163.281 139.312 163.746C137.824 164.493 136.654 165.75 136.015 167.288C135.085 169.613 137.646 171.988 136.759 172.174C135.871 172.36 133.825 169.384 132.244 169.291C130.663 169.198 129.082 170.467 127.501 171.718C125.92 172.969 128.676 177.585 131.23 177.255C133.783 176.926 134.07 174.871 134.958 176.038C135.845 177.205 134.4 177.433 132.768 179.479C131.137 181.525 134.079 184.323 135.803 184.737C137.528 185.151 139.185 183.106 139.1 181.195C139.016 179.284 140.876 177.56 140.876 177.56Z" fill="white" stroke="#263238" stroke-linecap="round" stroke-linejoin="round"/>
<path d="M142.55 175.04L140.969 174.719" stroke="#263238" stroke-linecap="round" stroke-linejoin="round"/>
<path d="M139.548 177.103L138.957 175.471" stroke="#263238" stroke-linecap="round" stroke-linejoin="round"/>
<path d="M137.215 177.112L136.758 174.753" stroke="#263238" stroke-linecap="round" stroke-linejoin="round"/>
<path d="M137.993 172.445L138.737 169.79" stroke="#263238" stroke-linecap="round" stroke-linejoin="round"/>
<path d="M140.748 171.371L139.649 172.952" stroke="#263238" stroke-linecap="round" stroke-linejoin="round"/>
<path d="M135.93 173.333L133.994 172.724" stroke="#263238" stroke-linecap="round" stroke-linejoin="round"/>
<path d="M54.4659 183.173C55.1755 183.931 56.0434 184.523 57.0078 184.907C57.9722 185.292 59.0093 185.459 60.0456 185.397C63.6302 185.211 64.0444 180.789 61.2968 178.887C58.5492 176.985 56.2751 179.31 55.4296 178.71C54.5842 178.109 57.1966 175.632 56.2751 173.121C55.3536 170.61 53.6627 168.844 52.8934 169.359C51.4073 170.109 50.238 171.366 49.5963 172.902C48.6663 175.226 51.2279 177.594 50.3487 177.788C49.4695 177.983 47.4151 174.998 45.8342 174.905C44.2533 174.812 42.6723 176.072 41.0914 177.332C39.5105 178.591 42.2581 183.19 44.8197 182.861C47.3813 182.531 47.6518 180.485 48.5395 181.652C49.4272 182.818 47.9815 183.047 46.3584 185.092C44.7352 187.138 47.6687 189.928 49.3934 190.351C51.118 190.774 52.775 188.711 52.6905 186.809C52.606 184.906 54.4659 183.173 54.4659 183.173Z" fill="white" stroke="#263238" stroke-linecap="round" stroke-linejoin="round"/>
<path d="M56.1312 180.654L54.5503 180.333" stroke="#263238" stroke-linecap="round" stroke-linejoin="round"/>
<path d="M53.1387 182.717L52.5469 181.085" stroke="#263238" stroke-linecap="round" stroke-linejoin="round"/>
<path d="M50.8052 182.725L50.3486 180.366" stroke="#263238" stroke-linecap="round" stroke-linejoin="round"/>
<path d="M51.5747 178.058L52.3187 175.404" stroke="#263238" stroke-linecap="round" stroke-linejoin="round"/>
<path d="M54.3303 176.985L53.2397 178.566" stroke="#263238" stroke-linecap="round" stroke-linejoin="round"/>
<path d="M49.5115 178.946L47.584 178.329" stroke="#263238" stroke-linecap="round" stroke-linejoin="round"/>
<path d="M443.61 87.8274L454.296 190.275" stroke="#263238" stroke-linecap="round" stroke-linejoin="round"/>
<path d="M452.774 175.784L448.006 170.779" stroke="#263238" stroke-linecap="round" stroke-linejoin="round"/>
<path d="M449.62 172.411C449.609 171.575 449.419 170.751 449.063 169.994C448.708 169.237 448.194 168.566 447.558 168.023C446.23 166.84 439.247 163.898 438.579 166.333C437.785 169.038 444.971 174.296 449.62 172.411Z" fill="#92E3A9" stroke="#263238" stroke-linecap="round" stroke-linejoin="round"/>
<path d="M449.579 172.411L442.925 168.269" stroke="#263238" stroke-linecap="round" stroke-linejoin="round"/>
<path d="M453.958 187.079L449.308 183.207" stroke="#263238" stroke-linecap="round" stroke-linejoin="round"/>
<path d="M450.872 184.847C450.863 184.011 450.675 183.187 450.321 182.43C449.966 181.673 449.454 181.001 448.817 180.459C447.49 179.276 440.498 176.334 439.839 178.769C439.12 181.474 446.239 186.732 450.872 184.847Z" fill="#92E3A9" stroke="#263238" stroke-linecap="round" stroke-linejoin="round"/>
<path d="M450.872 184.847L444.227 180.705" stroke="#263238" stroke-linecap="round" stroke-linejoin="round"/>
<path d="M449.536 144.665L444.844 140.438" stroke="#263238" stroke-linecap="round" stroke-linejoin="round"/>
<path d="M446.408 142.069C446.399 141.233 446.212 140.409 445.857 139.652C445.503 138.895 444.99 138.223 444.354 137.681C443.026 136.498 436.035 133.556 435.375 135.991C434.657 138.696 441.809 143.954 446.408 142.069Z" fill="#92E3A9" stroke="#263238" stroke-linecap="round" stroke-linejoin="round"/>
<path d="M446.408 142.069L439.763 137.927" stroke="#263238" stroke-linecap="round" stroke-linejoin="round"/>
<path d="M450.847 157.887L446.138 152.865" stroke="#263238" stroke-linecap="round" stroke-linejoin="round"/>
<path d="M447.71 154.53C447.699 153.694 447.509 152.87 447.153 152.114C446.797 151.357 446.284 150.685 445.647 150.143C444.32 148.959 437.337 146.017 436.669 148.452C435.95 151.149 443.102 156.39 447.71 154.53Z" fill="#92E3A9" stroke="#263238" stroke-linecap="round" stroke-linejoin="round"/>
<path d="M447.71 154.505L441.057 150.363" stroke="#263238" stroke-linecap="round" stroke-linejoin="round"/>
<path d="M447.448 125.043L442.73 120.232" stroke="#263238" stroke-linecap="round" stroke-linejoin="round"/>
<path d="M444.303 121.872C444.294 121.037 444.106 120.212 443.752 119.455C443.398 118.698 442.885 118.026 442.248 117.485C440.921 116.301 433.93 113.359 433.27 115.794C432.543 118.499 439.695 123.758 444.303 121.872Z" fill="#92E3A9" stroke="#263238" stroke-linecap="round" stroke-linejoin="round"/>
<path d="M444.303 121.872L437.65 117.73" stroke="#263238" stroke-linecap="round" stroke-linejoin="round"/>
<path d="M445.174 103.442L440.617 99.9504" stroke="#263238" stroke-linecap="round" stroke-linejoin="round"/>
<path d="M442.189 101.582C442.175 100.747 441.984 99.9237 441.628 99.1674C441.272 98.4112 440.761 97.7388 440.127 97.1945C438.799 96.0109 431.816 93.0689 431.148 95.5037C430.43 98.209 437.582 103.468 442.189 101.582Z" fill="#92E3A9" stroke="#263238" stroke-linecap="round" stroke-linejoin="round"/>
<path d="M442.19 101.582L435.536 97.4397" stroke="#263238" stroke-linecap="round" stroke-linejoin="round"/>
<path d="M452.309 168.886L456.24 162.469" stroke="#263238" stroke-linecap="round" stroke-linejoin="round"/>
<path d="M455.04 164.396C454.878 163.576 454.894 162.73 455.086 161.917C455.279 161.103 455.644 160.34 456.156 159.679C457.204 158.242 463.435 153.922 464.61 156.196C465.853 158.665 459.935 165.284 455.04 164.396Z" fill="#92E3A9" stroke="#263238" stroke-linecap="round" stroke-linejoin="round"/>
<path d="M455.04 164.396L459.723 160" stroke="#263238" stroke-linecap="round" stroke-linejoin="round"/>
<path d="M448.894 136.16L452.825 129.751" stroke="#263238" stroke-linecap="round" stroke-linejoin="round"/>
<path d="M451.624 131.704C451.462 130.884 451.478 130.038 451.671 129.225C451.863 128.411 452.228 127.648 452.74 126.987C453.789 125.558 458.658 121.965 459.825 124.231C461.085 126.674 456.528 132.55 451.624 131.704Z" fill="#92E3A9" stroke="#263238" stroke-linecap="round" stroke-linejoin="round"/>
<path d="M451.625 131.67L457.619 125.947" stroke="#263238" stroke-linecap="round" stroke-linejoin="round"/>
<path d="M447.397 121.779L451.329 115.371" stroke="#263238" stroke-linecap="round" stroke-linejoin="round"/>
<path d="M450.128 117.332C449.968 116.511 449.984 115.665 450.175 114.851C450.366 114.036 450.728 113.271 451.236 112.606C452.292 111.178 458.523 106.858 459.69 109.132C460.933 111.567 455.023 118.178 450.128 117.332Z" fill="#92E3A9" stroke="#263238" stroke-linecap="round" stroke-linejoin="round"/>
<path d="M450.128 117.298L456.122 111.566" stroke="#263238" stroke-linecap="round" stroke-linejoin="round"/>
<path d="M445.19 100.703L449.13 94.2864" stroke="#263238" stroke-linecap="round" stroke-linejoin="round"/>
<path d="M447.93 96.197C447.768 95.3771 447.783 94.5322 447.974 93.7186C448.165 92.905 448.527 92.1416 449.037 91.4796C450.094 90.0424 456.325 85.7223 457.491 87.9965C458.734 90.482 452.825 97.1016 447.93 96.197Z" fill="#92E3A9" stroke="#263238" stroke-linecap="round" stroke-linejoin="round"/>
<path d="M447.93 96.2139L453.915 90.4905" stroke="#263238" stroke-linecap="round" stroke-linejoin="round"/>
<path d="M443.508 87.2271C443.346 86.4053 443.362 85.5584 443.555 84.7433C443.747 83.9281 444.112 83.1636 444.624 82.5012C445.673 81.0725 451.903 76.7524 453.078 79.0266C454.321 81.4952 448.412 88.1148 443.508 87.2271Z" fill="#92E3A9" stroke="#263238" stroke-linecap="round" stroke-linejoin="round"/>
<path d="M443.508 87.227L449.502 81.4951" stroke="#263238" stroke-linecap="round" stroke-linejoin="round"/>
<path d="M443.855 87.4722C443.023 87.5486 442.184 87.4454 441.395 87.1698C440.606 86.8941 439.885 86.4524 439.281 85.8744C437.971 84.6739 434.327 78.0289 436.745 77.1159C439.29 76.1183 445.258 82.6703 443.855 87.4722Z" fill="#92E3A9" stroke="#263238" stroke-linecap="round" stroke-linejoin="round"/>
<path d="M443.855 87.4723L438.791 80.9119" stroke="#263238" stroke-linecap="round" stroke-linejoin="round"/>
<path d="M460.704 58.3647V190.03" stroke="#263238" stroke-linecap="round" stroke-linejoin="round"/>
<path d="M473.707 102.884L464.61 190.537" stroke="#263238" stroke-linecap="round" stroke-linejoin="round"/>
<path d="M464.754 189.886L462.133 186.885" stroke="#263238" stroke-linecap="round" stroke-linejoin="round"/>
<path d="M462.133 186.885C462.295 186.064 462.279 185.219 462.086 184.405C461.894 183.591 461.529 182.828 461.017 182.167C459.96 180.738 453.729 176.418 452.563 178.693C451.312 181.161 457.229 187.781 462.133 186.885Z" fill="#92E3A9" stroke="#263238" stroke-linecap="round" stroke-linejoin="round"/>
<path d="M462.133 186.885L456.477 181.457" stroke="#263238" stroke-linecap="round" stroke-linejoin="round"/>
<path d="M467.958 158.673L464.061 155.418" stroke="#263238" stroke-linecap="round" stroke-linejoin="round"/>
<path d="M465.278 156.542C465.44 155.723 465.425 154.878 465.234 154.064C465.043 153.25 464.68 152.487 464.17 151.825C463.113 150.388 456.883 146.076 455.716 148.35C454.465 150.819 460.383 157.439 465.278 156.542Z" fill="#92E3A9" stroke="#263238" stroke-linecap="round" stroke-linejoin="round"/>
<path d="M465.278 156.543L459.622 151.115" stroke="#263238" stroke-linecap="round" stroke-linejoin="round"/>
<path d="M466.723 173.468L462.784 167.051" stroke="#263238" stroke-linecap="round" stroke-linejoin="round"/>
<path d="M463.993 168.978C464.155 168.159 464.14 167.314 463.949 166.5C463.758 165.687 463.395 164.923 462.885 164.261C461.828 162.824 455.598 158.512 454.431 160.786C453.18 163.255 459.089 169.875 463.993 168.978Z" fill="#92E3A9" stroke="#263238" stroke-linecap="round" stroke-linejoin="round"/>
<path d="M463.984 168.979L458.329 163.551" stroke="#263238" stroke-linecap="round" stroke-linejoin="round"/>
<path d="M469.936 138.746L466.174 134.418" stroke="#263238" stroke-linecap="round" stroke-linejoin="round"/>
<path d="M467.374 136.346C467.536 135.526 467.521 134.681 467.33 133.867C467.139 133.054 466.777 132.29 466.267 131.628C465.21 130.191 458.971 125.879 457.813 128.145C456.562 130.622 462.479 137.233 467.374 136.346Z" fill="#92E3A9" stroke="#263238" stroke-linecap="round" stroke-linejoin="round"/>
<path d="M467.375 136.346L461.719 130.918" stroke="#263238" stroke-linecap="round" stroke-linejoin="round"/>
<path d="M471.906 119.759L468.279 114.128" stroke="#263238" stroke-linecap="round" stroke-linejoin="round"/>
<path d="M469.479 116.056C469.641 115.236 469.626 114.391 469.435 113.577C469.244 112.764 468.882 112 468.372 111.338C467.315 109.901 461.076 105.589 459.918 107.864C458.667 110.332 464.584 116.952 469.479 116.056Z" fill="#92E3A9" stroke="#263238" stroke-linecap="round" stroke-linejoin="round"/>
<path d="M469.48 116.056L463.824 110.628" stroke="#263238" stroke-linecap="round" stroke-linejoin="round"/>
<path d="M465.531 183.993L470.697 178.532" stroke="#263238" stroke-linecap="round" stroke-linejoin="round"/>
<path d="M469.125 180.164C469.136 179.327 469.326 178.503 469.681 177.747C470.037 176.99 470.551 176.318 471.187 175.776C472.515 174.592 479.498 171.65 480.166 174.085C480.901 176.782 473.732 182.049 469.125 180.164Z" fill="#92E3A9" stroke="#263238" stroke-linecap="round" stroke-linejoin="round"/>
<path d="M469.125 180.164L476.167 175.793" stroke="#263238" stroke-linecap="round" stroke-linejoin="round"/>
<path d="M468.921 151.276L474.095 145.806" stroke="#263238" stroke-linecap="round" stroke-linejoin="round"/>
<path d="M472.523 147.446C472.532 146.61 472.719 145.786 473.074 145.029C473.428 144.272 473.941 143.6 474.577 143.058C475.905 141.866 482.896 138.924 483.556 141.367C484.283 144.064 477.13 149.323 472.523 147.446Z" fill="#92E3A9" stroke="#263238" stroke-linecap="round" stroke-linejoin="round"/>
<path d="M472.523 147.446L479.565 143.075" stroke="#263238" stroke-linecap="round" stroke-linejoin="round"/>
<path d="M470.418 136.895L475.583 131.425" stroke="#263238" stroke-linecap="round" stroke-linejoin="round"/>
<path d="M474.019 133.065C474.028 132.23 474.216 131.405 474.57 130.648C474.924 129.892 475.437 129.219 476.073 128.678C477.401 127.486 484.384 124.544 485.052 126.987C485.77 129.684 478.627 134.942 474.019 133.065Z" fill="#92E3A9" stroke="#263238" stroke-linecap="round" stroke-linejoin="round"/>
<path d="M474.019 133.065L481.053 128.695" stroke="#263238" stroke-linecap="round" stroke-linejoin="round"/>
<path d="M472.548 114.729L477.773 110.341" stroke="#263238" stroke-linecap="round" stroke-linejoin="round"/>
<path d="M476.2 111.981C476.212 111.145 476.401 110.321 476.757 109.564C477.113 108.807 477.626 108.135 478.263 107.593C479.59 106.401 486.573 103.459 487.233 105.902C487.96 108.599 480.808 113.858 476.2 111.981Z" fill="#92E3A9" stroke="#263238" stroke-linecap="round" stroke-linejoin="round"/>
<path d="M476.2 111.981L483.243 107.61" stroke="#263238" stroke-linecap="round" stroke-linejoin="round"/>
<path d="M473.732 102.276C473.751 101.437 473.947 100.613 474.309 99.8564C474.67 99.1 475.188 98.429 475.829 97.8878C477.156 96.6958 484.147 93.7538 484.807 96.197C485.492 98.8939 478.365 104.152 473.732 102.276Z" fill="#92E3A9" stroke="#263238" stroke-linecap="round" stroke-linejoin="round"/>
<path d="M473.732 102.276L480.774 97.9048" stroke="#263238" stroke-linecap="round" stroke-linejoin="round"/>
<path d="M474.019 102.588C473.188 102.486 472.388 102.206 471.673 101.769C470.959 101.331 470.346 100.746 469.877 100.052C468.829 98.6064 466.639 91.3442 469.158 90.9469C471.889 90.5411 476.378 98.2006 474.019 102.588Z" fill="#92E3A9" stroke="#263238" stroke-linecap="round" stroke-linejoin="round"/>
<path d="M474.019 102.588L470.418 95.1233" stroke="#263238" stroke-linecap="round" stroke-linejoin="round"/>
<path d="M460.51 175.59L456.232 169.875" stroke="#263238" stroke-linecap="round" stroke-linejoin="round"/>
<path d="M457.627 171.658C457.703 170.827 457.601 169.989 457.327 169.2C457.052 168.411 456.613 167.69 456.037 167.085C454.837 165.766 448.192 162.114 447.279 164.498C446.281 167.085 452.85 173.053 457.627 171.658Z" fill="#92E3A9" stroke="#263238" stroke-linecap="round" stroke-linejoin="round"/>
<path d="M457.627 171.659L451.438 166.848" stroke="#263238" stroke-linecap="round" stroke-linejoin="round"/>
<path d="M460.662 148.012L456.232 143.887" stroke="#263238" stroke-linecap="round" stroke-linejoin="round"/>
<path d="M457.627 145.679C457.7 144.846 457.597 144.007 457.323 143.218C457.049 142.428 456.611 141.705 456.037 141.097C454.837 139.786 448.192 136.134 447.279 138.51C446.281 141.097 452.85 147.074 457.627 145.679Z" fill="#92E3A9" stroke="#263238" stroke-linecap="round" stroke-linejoin="round"/>
<path d="M457.627 145.679L451.438 140.86" stroke="#263238" stroke-linecap="round" stroke-linejoin="round"/>
<path d="M460.814 119.353L456.232 113.376" stroke="#263238" stroke-linecap="round" stroke-linejoin="round"/>
<path d="M457.627 115.168C457.703 114.336 457.601 113.498 457.327 112.709C457.052 111.92 456.613 111.199 456.037 110.594C454.837 109.275 448.192 105.623 447.279 108.007C446.281 110.569 452.85 116.563 457.627 115.168Z" fill="#92E3A9" stroke="#263238" stroke-linecap="round" stroke-linejoin="round"/>
<path d="M457.627 115.168L451.438 110.358" stroke="#263238" stroke-linecap="round" stroke-linejoin="round"/>
<path d="M460.51 96.9324L456.232 93.0688" stroke="#263238" stroke-linecap="round" stroke-linejoin="round"/>
<path d="M457.627 94.8611C457.703 94.0295 457.601 93.1912 457.327 92.4024C457.052 91.6136 456.613 90.8925 456.037 90.2874C454.837 88.9686 448.192 85.3164 447.279 87.7005C446.281 90.279 452.85 96.2561 457.627 94.8611Z" fill="#92E3A9" stroke="#263238" stroke-linecap="round" stroke-linejoin="round"/>
<path d="M457.627 94.8612L451.438 90.0508" stroke="#263238" stroke-linecap="round" stroke-linejoin="round"/>
<path d="M460.763 76.6086L456.325 73.3538" stroke="#263238" stroke-linecap="round" stroke-linejoin="round"/>
<path d="M457.627 74.4699C457.7 73.6372 457.597 72.7983 457.323 72.0085C457.049 71.2187 456.611 70.4959 456.037 69.8877C454.837 68.5689 448.192 64.9251 447.279 67.3007C446.281 69.8877 452.85 75.8563 457.627 74.4699Z" fill="#92E3A9" stroke="#263238" stroke-linecap="round" stroke-linejoin="round"/>
<path d="M457.627 74.4697L451.438 69.6509" stroke="#263238" stroke-linecap="round" stroke-linejoin="round"/>
<path d="M461.6 182.488L465.286 177.805" stroke="#263238" stroke-linecap="round" stroke-linejoin="round"/>
<path d="M463.891 179.597C463.815 178.763 463.918 177.923 464.193 177.133C464.469 176.342 464.911 175.62 465.489 175.015C466.681 173.704 473.326 170.052 474.248 172.428C475.237 175.015 468.668 180.992 463.891 179.597Z" fill="#92E3A9" stroke="#263238" stroke-linecap="round" stroke-linejoin="round"/>
<path d="M463.891 179.597L470.443 174.525" stroke="#263238" stroke-linecap="round" stroke-linejoin="round"/>
<path d="M460.712 142.45L465.286 136.481" stroke="#263238" stroke-linecap="round" stroke-linejoin="round"/>
<path d="M463.891 138.273C463.815 137.44 463.918 136.599 464.193 135.809C464.469 135.019 464.911 134.296 465.489 133.691C466.681 132.372 473.326 128.729 474.248 131.104C475.237 133.691 468.668 139.66 463.891 138.273Z" fill="#92E3A9" stroke="#263238" stroke-linecap="round" stroke-linejoin="round"/>
<path d="M463.891 138.273L470.443 133.201" stroke="#263238" stroke-linecap="round" stroke-linejoin="round"/>
<path d="M460.712 122.05L465.286 116.081" stroke="#263238" stroke-linecap="round" stroke-linejoin="round"/>
<path d="M463.891 117.873C463.815 117.041 463.918 116.202 464.194 115.413C464.469 114.624 464.911 113.903 465.489 113.3C466.681 111.981 473.326 108.329 474.247 110.704C475.237 113.3 468.668 119.268 463.891 117.873Z" fill="#92E3A9" stroke="#263238" stroke-linecap="round" stroke-linejoin="round"/>
<path d="M463.891 117.873L470.443 112.801" stroke="#263238" stroke-linecap="round" stroke-linejoin="round"/>
<path d="M460.712 95.0895L465.286 89.1208" stroke="#263238" stroke-linecap="round" stroke-linejoin="round"/>
<path d="M463.891 90.9131C463.815 90.0809 463.918 89.2419 464.194 88.4529C464.469 87.6638 464.911 86.9431 465.489 86.3394C466.681 85.0206 473.326 81.3684 474.247 83.7525C475.237 86.3394 468.668 92.3081 463.891 90.9131Z" fill="#92E3A9" stroke="#263238" stroke-linecap="round" stroke-linejoin="round"/>
<path d="M463.891 90.9131L470.443 85.8406" stroke="#263238" stroke-linecap="round" stroke-linejoin="round"/>
<path d="M460.907 71.8235L465.396 68.3235" stroke="#263238" stroke-linecap="round" stroke-linejoin="round"/>
<path d="M463.891 69.7184C463.815 68.8861 463.918 68.0472 464.194 67.2581C464.469 66.4691 464.911 65.7484 465.489 65.1447C466.681 63.8259 473.326 60.1737 474.247 62.5493C475.237 65.1447 468.668 71.1134 463.891 69.7184Z" fill="#92E3A9" stroke="#263238" stroke-linecap="round" stroke-linejoin="round"/>
<path d="M463.891 69.7185L470.443 64.646" stroke="#263238" stroke-linecap="round" stroke-linejoin="round"/>
<path d="M460.434 60.3174C460.357 59.4851 460.46 58.6462 460.736 57.8571C461.012 57.0681 461.453 56.3474 462.031 55.7437C463.223 54.4249 469.868 50.7727 470.782 53.1568C471.779 55.7437 465.21 61.7124 460.434 60.3174Z" fill="#92E3A9" stroke="#263238" stroke-linecap="round" stroke-linejoin="round"/>
<path d="M460.434 60.3176L466.986 55.2451" stroke="#263238" stroke-linecap="round" stroke-linejoin="round"/>
<path d="M460.755 60.5965C459.918 60.5874 459.094 60.3984 458.337 60.0425C457.579 59.6866 456.908 59.172 456.367 58.5337C455.184 57.2064 452.25 50.2148 454.676 49.5554C457.39 48.8537 462.64 55.9974 460.755 60.5965Z" fill="#92E3A9" stroke="#263238" stroke-linecap="round" stroke-linejoin="round"/>
<path d="M460.755 60.5965L456.401 53.5542" stroke="#263238" stroke-linecap="round" stroke-linejoin="round"/>
<path d="M443.009 187.502C439.718 192.554 437.995 198.466 438.055 204.495C438.055 219.205 447.701 231.134 459.596 231.134C471.491 231.134 481.146 219.205 481.146 204.495C481.204 198.465 479.477 192.553 476.183 187.502H443.009Z" fill="#263238" stroke="#263238" stroke-linecap="round" stroke-linejoin="round"/>
<path d="M397.56 181.44H367.81V231.133H397.56V181.44Z" fill="#E3E3E3" stroke="#263238" stroke-linecap="round" stroke-linejoin="round"/>
<path d="M386.333 173.874C386.333 169.739 382.681 166.392 382.681 166.392C382.681 166.392 379.029 169.773 379.029 173.874C379.029 177.974 380.66 181.355 382.681 181.355C384.702 181.355 386.333 178.008 386.333 173.874Z" fill="#92E3A9" stroke="#263238" stroke-linecap="round" stroke-linejoin="round"/>
<path d="M384.6 176.917C384.6 178.701 383.754 180.138 382.681 180.138C381.607 180.138 380.77 178.701 380.77 176.917C380.77 175.133 381.615 173.705 382.681 173.705C383.746 173.705 384.6 175.142 384.6 176.917Z" fill="white" stroke="#263238" stroke-linecap="round" stroke-linejoin="round"/>
<path d="M431.495 192.059H401.745V231.134H431.495V192.059Z" fill="#BFBFBF" stroke="#263238" stroke-linecap="round" stroke-linejoin="round"/>
<path d="M420.276 184.492C420.276 180.358 416.624 177.01 416.624 177.01C416.624 177.01 412.963 180.392 412.963 184.492C412.963 188.592 414.603 191.974 416.624 191.974C418.645 191.974 420.276 188.626 420.276 184.492Z" fill="#92E3A9" stroke="#263238" stroke-linecap="round" stroke-linejoin="round"/>
<path d="M418.535 187.502C418.535 189.286 417.689 190.723 416.624 190.723C415.559 190.723 414.705 189.286 414.705 187.502C414.705 185.718 415.55 184.281 416.624 184.281C417.698 184.281 418.535 185.76 418.535 187.502Z" fill="white" stroke="#263238" stroke-linecap="round" stroke-linejoin="round"/>
<path d="M492.559 333.361V235.115H312.731V331.67" fill="white"/>
<path d="M492.559 333.361V235.115H312.731V331.67" stroke="#263238" stroke-linecap="round" stroke-linejoin="round"/>
<path d="M492.559 235.115H312.731V238.878H492.559V235.115Z" fill="#263238" stroke="#263238" stroke-linecap="round" stroke-linejoin="round"/>
<path d="M482.067 241.109H325.218V273.074H482.067V241.109Z" fill="white" stroke="#263238" stroke-linecap="round" stroke-linejoin="round"/>
<path d="M428.291 254.577H379.003V259.607H428.291V254.577Z" fill="#263238" stroke="#263238" stroke-linecap="round" stroke-linejoin="round"/>
<path d="M482.067 280.074H325.218V312.04H482.067V280.074Z" fill="white" stroke="#263238" stroke-linecap="round" stroke-linejoin="round"/>
<path d="M428.291 293.542H379.003V298.572H428.291V293.542Z" fill="#263238" stroke="#263238" stroke-linecap="round" stroke-linejoin="round"/>
<path d="M496.102 230.618H309.181V235.217H496.102V230.618Z" fill="white" stroke="#263238" stroke-linecap="round" stroke-linejoin="round"/>
<path d="M144.781 51.8633C144.781 51.8633 128.161 59.0747 128.042 75.0361C127.925 84.2009 128.538 93.3604 129.877 102.428L127.975 101.582C128.563 102.82 129.238 104.015 129.995 105.158C130.35 105.395 126.546 104.922 127.256 105.868C127.966 106.815 127.611 107.06 130.114 108.405C131.541 109.092 132.649 110.303 133.208 111.786C133.208 111.786 130.114 111.068 129.04 111.786C127.966 112.505 135.127 123.25 148.577 123.385C162.028 123.521 159.652 115.286 164.894 106.24C170.135 97.1945 193.832 90.279 198 90.3973C202.168 90.5157 210.741 93.2548 216.101 85.9927C221.461 78.7306 218.13 74.0808 218.13 74.0808C218.13 74.0808 219.085 75.983 219.82 75.0361C220.556 74.0893 218.857 67.7994 207.782 57.7982C196.707 47.7969 174.675 40.8899 160.024 43.8488C145.373 46.8078 144.781 51.8633 144.781 51.8633Z" fill="#263238" stroke="#263238" stroke-linecap="round" stroke-linejoin="round"/>
<path d="M192.505 77.7669C193.477 76.7803 194.328 75.682 195.041 74.4951" stroke="white" stroke-linecap="round" stroke-linejoin="round"/>
<path d="M140.317 97.7779C151.284 95.9623 162.087 93.2651 172.621 89.7126C178.556 87.7513 184.115 84.7984 189.064 80.9795" stroke="white" stroke-linecap="round" stroke-linejoin="round"/>
<path d="M135.566 98.5219C135.566 98.5219 136.479 98.4035 138.103 98.1499" stroke="white" stroke-linecap="round" stroke-linejoin="round"/>
<path d="M174.083 71.9927C169.467 78.5531 160.066 88.4783 142.98 93.9143" stroke="white" stroke-linecap="round" stroke-linejoin="round"/>
<path d="M177.82 65.4832C177.349 66.5962 176.801 67.6753 176.18 68.7126" stroke="white" stroke-linecap="round" stroke-linejoin="round"/>
<path d="M154.994 79.6946C154.994 79.6946 141.375 89.1125 136.395 91.5304" stroke="white" stroke-linecap="round" stroke-linejoin="round"/>
<path d="M207.063 74.2923C207.063 74.2923 211.29 68.6872 211.29 64.2742" stroke="white" stroke-linecap="round" stroke-linejoin="round"/>
<path d="M176.256 129.794C176.256 129.794 190.992 130.994 198.237 140.513C205.482 150.033 206.81 169.655 206.81 177.458C206.81 185.261 217.673 225.418 217.673 225.418L189.064 233.695C189.064 233.695 194.805 193.462 189.859 180.316C184.913 167.169 172.105 143.371 170.626 136.354C169.146 129.337 176.256 129.794 176.256 129.794Z" fill="white" stroke="#263238" stroke-linecap="round" stroke-linejoin="round"/>
<path d="M197.273 178.988C201.792 178.453 206.215 177.298 210.419 175.556C210.419 175.556 208.322 150.193 202.033 142.585C195.743 134.976 185.851 130.994 182.233 130.994H178.615C178.615 130.994 176.712 153.085 178.42 153.82C180.966 154.926 183.574 155.88 186.232 156.678" fill="#263238"/>
<path d="M197.273 178.988C201.792 178.453 206.215 177.298 210.419 175.556C210.419 175.556 208.322 150.193 202.033 142.585C195.743 134.976 185.851 130.994 182.233 130.994H178.615C178.615 130.994 176.712 153.085 178.42 153.82C180.966 154.926 183.574 155.88 186.232 156.678" stroke="#263238" stroke-linecap="round" stroke-linejoin="round"/>
<path d="M209.988 171.439C205.552 173.324 200.897 174.648 196.132 175.378L197.273 178.997C201.792 178.461 206.215 177.306 210.419 175.564C210.419 175.564 210.284 173.975 209.988 171.439Z" fill="white" stroke="#263238" stroke-linecap="round" stroke-linejoin="round"/>
<path d="M52.6226 328.973C52.3352 320.79 51.2192 277.006 60.8992 256.792C71.5683 234.515 86.6421 233.069 85.3317 228.2C84.0213 223.33 83.1928 164.794 94.4284 148.731C105.664 132.668 134.501 130.977 134.501 130.977L158.266 130.85C158.266 130.85 177.938 128.035 183.307 134.427C186.713 141.332 188.617 148.881 188.895 156.576L191.744 159.848C195.675 169.587 200.705 191.23 197.467 198.661C195.43 203.319 192.733 207.377 186.562 219.171C180.914 229.941 171.057 314.703 169.391 329.32" fill="#263238"/>
<path d="M52.6226 328.973C52.3352 320.79 51.2192 277.006 60.8992 256.792C71.5683 234.515 86.6421 233.069 85.3317 228.2C84.0213 223.33 83.1928 164.794 94.4284 148.731C105.664 132.668 134.501 130.977 134.501 130.977L158.266 130.85C158.266 130.85 177.938 128.035 183.307 134.427C186.713 141.332 188.617 148.881 188.895 156.576L191.744 159.848C195.675 169.587 200.705 191.23 197.467 198.661C195.43 203.319 192.733 207.377 186.562 219.171C180.914 229.941 171.057 314.703 169.391 329.32" stroke="#263238" stroke-linecap="round" stroke-linejoin="round"/>
<path d="M147.132 124.654C147.132 124.654 133.681 126.04 130.519 129.997C127.357 133.953 126.96 147.395 128.938 158.47C130.917 169.545 130.714 177.458 133.681 176.866C136.648 176.275 145.153 164.405 149.304 164.405C153.455 164.405 148.315 165.588 151.841 170.137C155.366 174.685 164.302 177.855 164.302 177.855L171.623 175.674C171.623 175.674 176.366 173.899 177.161 170.34C177.955 166.781 175.58 162.824 177.558 161.632C179.536 160.44 187.644 162.824 189.817 162.427C191.989 162.029 192.353 156.297 188.633 143.642C184.913 130.986 182.715 128.213 168.85 125.44C154.986 122.667 147.132 124.654 147.132 124.654Z" fill="white" stroke="#263238" stroke-linecap="round" stroke-linejoin="round"/>
<path d="M145.948 127.224C145.948 127.224 139.185 129.76 138.229 133.987C137.274 138.214 145.551 156.737 153.658 166.823C161.766 176.909 164.539 183.435 167.109 182.843C169.679 182.252 178.378 156.34 179.57 147.64C180.762 138.941 182.335 137.749 176.4 130.631C170.465 123.512 155.831 122.481 145.948 127.224Z" fill="white" stroke="#263238" stroke-linecap="round" stroke-linejoin="round"/>
<path d="M169.975 151.149C168.377 144.073 172.257 134.486 172.257 134.486C174.403 136.35 177.177 137.33 180.018 137.225C186.663 137.03 189.825 133.116 194.39 126.496C198.956 119.877 202.844 113.257 203.292 109.157C203.741 105.057 205.347 102.994 206.716 95.9179C208.086 88.8418 205.803 75.6279 205.803 75.6279C205.803 75.6279 202.836 80.878 195.988 86.3562C189.14 91.8345 194.162 83.3888 194.162 83.3888C194.162 83.3888 189.14 87.041 172.714 92.291C156.287 97.5411 147.833 100.745 146.506 101.193C145.179 101.641 145.373 103.248 146.734 106.215C147.403 107.859 148.61 109.227 150.158 110.095C150.158 110.095 146.278 126.522 142.406 132.228" fill="white"/>
<path d="M169.975 151.149C168.377 144.073 172.257 134.486 172.257 134.486C174.403 136.35 177.177 137.33 180.018 137.225C186.663 137.03 189.825 133.116 194.39 126.496C198.956 119.877 202.844 113.257 203.292 109.157C203.741 105.057 205.347 102.994 206.716 95.9179C208.086 88.8418 205.803 75.6279 205.803 75.6279C205.803 75.6279 202.836 80.878 195.988 86.3562C189.14 91.8345 194.162 83.3888 194.162 83.3888C194.162 83.3888 189.14 87.041 172.714 92.291C156.287 97.5411 147.833 100.745 146.506 101.193C145.179 101.641 145.373 103.248 146.734 106.215C147.403 107.859 148.61 109.227 150.158 110.095C150.158 110.095 146.278 126.522 142.406 132.228" stroke="#263238" stroke-linecap="round" stroke-linejoin="round"/>
<path d="M187.889 96.0786C187.889 96.0786 180.28 91.8515 173.306 95.8503" stroke="#263238" stroke-width="2" stroke-linecap="round" stroke-linejoin="round"/>
<path d="M196.622 95.7826C199.168 94.385 202.048 93.7125 204.949 93.8381" stroke="#263238" stroke-width="2" stroke-linecap="round" stroke-linejoin="round"/>
<path d="M195.151 97.9893C195.151 97.9893 192.708 102.039 192.708 105.023C192.708 108.007 194.399 116.538 192.953 117.814C191.507 119.091 183.408 117.392 183.408 117.392" fill="white"/>
<path d="M195.151 97.9893C195.151 97.9893 192.708 102.039 192.708 105.023C192.708 108.007 194.399 116.538 192.953 117.814C191.507 119.091 183.408 117.392 183.408 117.392" stroke="#263238" stroke-linecap="round" stroke-linejoin="round"/>
<path d="M181.624 105.725C181.455 107.264 180.618 108.439 179.756 108.346C178.894 108.253 178.336 106.917 178.505 105.378C178.674 103.84 179.511 102.673 180.373 102.766C181.235 102.859 181.777 104.186 181.624 105.725Z" fill="#263238"/>
<path d="M198.533 104.947C198.093 106.435 197.062 107.483 196.233 107.196C195.405 106.908 195.084 105.547 195.515 104.059C195.946 102.571 196.986 101.523 197.814 101.811C198.643 102.098 198.939 103.459 198.533 104.947Z" fill="#263238"/>
<path d="M187.543 124.18C187.543 124.18 181.422 125.643 176.772 121.238" stroke="#263238" stroke-linecap="round" stroke-linejoin="round"/>
<path d="M156.042 96.4167C156.042 96.4167 158.41 99.0713 159.001 98.9529C159.593 98.8346 159.737 96.4167 159.737 96.4167C159.737 96.4167 161.064 91.5471 156.042 96.4167Z" fill="#263238" stroke="#263238" stroke-linecap="round" stroke-linejoin="round"/>
<path d="M172.257 134.46L166.525 129.608C166.525 129.608 167.506 140.505 169.62 146.262C169.62 146.262 169.552 138.468 172.257 134.46Z" fill="#263238" stroke="#263238" stroke-linecap="round" stroke-linejoin="round"/>
<path d="M150.116 110.045L151.325 109.842C152.155 109.609 152.949 109.262 153.683 108.811C153.929 110.274 154.326 111.707 154.867 113.088" fill="white"/>
<path d="M150.116 110.045L151.325 109.842C152.155 109.609 152.949 109.262 153.683 108.811C153.929 110.274 154.326 111.707 154.867 113.088" stroke="#263238" stroke-linecap="round" stroke-linejoin="round"/>
<path d="M69.9621 331.696C69.9621 331.696 58.9717 291.767 83.1759 277.268C107.38 262.769 148.653 259.362 185.386 254.856C212.913 251.474 241.446 257.341 263.367 274.926C279.599 287.954 289.415 308.65 295.223 328.305" fill="white"/>
<path d="M69.9621 331.696C69.9621 331.696 58.9717 291.767 83.1759 277.268C107.38 262.769 148.653 259.362 185.386 254.856C212.913 251.474 241.446 257.341 263.367 274.926C279.599 287.954 289.415 308.65 295.223 328.305" stroke="#263238" stroke-linecap="round" stroke-linejoin="round"/>
<path d="M183.958 226.255C183.958 226.255 183.696 230.246 181.836 231.328C179.976 232.41 177.313 226.813 172.266 230.001C167.219 233.188 168.039 238.505 167.489 239.833C166.94 241.16 163.499 239.3 161.377 242.225C159.255 245.15 163.237 256.301 163.237 256.301C163.237 256.301 173.864 256.834 191.668 260.292C209.473 263.749 225.138 272.516 225.138 272.516C225.138 272.516 229.661 271.713 228.596 264.544C227.531 257.375 222.746 249.665 210.529 244.085C198.313 238.505 183.958 226.255 183.958 226.255Z" fill="#263238" stroke="#263238" stroke-linecap="round" stroke-linejoin="round"/>
<path d="M262.734 212.864C262.734 212.864 268.246 213.557 268.711 216.998C269.256 220.285 269.098 223.651 268.246 226.873C267.333 229.857 258.143 231.463 258.143 231.463C258.143 231.463 261.838 215.73 262.734 212.864Z" fill="white" stroke="#263238" stroke-linecap="round" stroke-linejoin="round"/>
<path d="M269.624 229.663C269.424 231.129 269.116 232.579 268.702 234C268.237 235.141 266.859 237.669 265.709 237.669C264.56 237.669 264.796 236.984 265.253 235.606C265.709 234.228 267.324 229.865 267.324 229.865L269.624 229.663Z" fill="white" stroke="#263238" stroke-linecap="round" stroke-linejoin="round"/>
<path d="M270.774 225.3C270.622 226.806 270.234 228.278 269.624 229.662C268.711 231.497 259.986 235.166 259.986 235.166C259.986 235.166 258.371 234.481 259.749 232.63C261.127 230.778 270.774 225.3 270.774 225.3Z" fill="white" stroke="#263238" stroke-linecap="round" stroke-linejoin="round"/>
<path d="M269.167 220.473C269.167 220.473 271.458 223.694 270.773 225.3C270.089 226.906 263.165 231.725 261.592 232.182C260.02 232.638 258.726 230.17 260.214 229.434C261.702 228.699 269.167 220.473 269.167 220.473Z" fill="white" stroke="#263238" stroke-linecap="round" stroke-linejoin="round"/>
<path d="M262.733 212.864L270.342 215.62C270.342 215.62 271.72 219.298 271.483 220.211C271.247 221.124 262.531 226.644 261.152 226.873C259.774 227.101 260.696 223.888 261.389 222.967C262.082 222.045 266.462 217.691 266.462 217.691" fill="white"/>
<path d="M262.733 212.864L270.342 215.62C270.342 215.62 271.72 219.298 271.483 220.211C271.247 221.124 262.531 226.644 261.152 226.873C259.774 227.101 260.696 223.888 261.389 222.967C262.082 222.045 266.462 217.691 266.462 217.691" stroke="#263238" stroke-linecap="round" stroke-linejoin="round"/>
<path d="M261.364 209.482C262.873 209.948 264.405 210.332 265.955 210.632C266.64 210.632 268.711 212.695 270.774 212.01C272.837 211.325 274.908 213.152 273.31 214.995C272.761 215.675 272.059 216.217 271.262 216.576C270.464 216.934 269.593 217.099 268.719 217.057C267.341 217.057 262.286 215.679 262.286 215.679L261.364 209.482Z" fill="white" stroke="#263238" stroke-linecap="round" stroke-linejoin="round"/>
<path d="M239.442 191.56C239.442 191.56 235.164 195.592 232.324 196.066C229.483 196.539 227.099 193.462 219.744 193.699C212.389 193.935 200.959 197.926 194.491 206.895C180.855 225.824 183.442 232.131 182.968 233.103C182.495 234.076 182.022 246.148 187.948 249.47C193.874 252.793 194.593 253.74 198.389 251.846C202.185 249.952 209.54 247.619 210.969 249.707C212.397 251.795 212.152 256.115 213.336 256.826C214.519 257.536 217.368 253.977 219.744 256.826C221.291 258.85 222.348 261.205 222.83 263.707C223.066 264.417 226.152 266.083 226.152 266.083C226.152 266.083 214.046 273.911 213.809 291.445C213.572 308.979 226.152 323.478 226.152 323.478C226.152 323.478 270.756 277.209 295.907 264.629C321.058 252.049 324.651 251.584 324.651 251.584C324.651 251.584 300.65 240.881 290.446 240.881C280.242 240.881 265.337 241.853 264.627 241.853C263.917 241.853 262.395 236.629 261.727 228.682C261.059 220.735 265.337 213.616 263.672 210.083C262.006 206.549 258.455 205.813 254.186 203.911C251.005 202.562 247.757 201.374 244.455 200.352C244.455 200.352 243.745 194.189 242.317 192.287C240.888 190.385 239.442 191.56 239.442 191.56Z" fill="white" stroke="#263238" stroke-linecap="round" stroke-linejoin="round"/>
<path d="M245.132 202.947C243.874 204.073 242.758 205.347 241.809 206.743C240.863 208.434 238.487 210.539 237.54 210.539" stroke="#263238" stroke-linecap="round" stroke-linejoin="round"/>
<path d="M217.453 207.969C217.453 207.969 217.952 204.486 219.778 202.99C221.604 201.493 222.931 201.662 223.76 201.299C224.588 200.935 221.934 202.795 220.607 204.283C219.279 205.771 217.453 207.969 217.453 207.969Z" fill="#263238" stroke="#263238" stroke-linecap="round" stroke-linejoin="round"/>
<path d="M211.984 205.813C211.984 205.813 210.293 203.827 212.829 200.174C215.365 196.522 219.964 196.691 219.964 196.691C219.964 196.691 219.626 194.865 216.312 196.193C212.998 197.52 209.988 200.183 211.984 205.813Z" fill="#263238" stroke="#263238" stroke-linecap="round" stroke-linejoin="round"/>
<path d="M268.169 264.181C268.896 264.434 269.607 264.713 270.3 265.026" stroke="#263238" stroke-linecap="round" stroke-linejoin="round"/>
<path d="M245.809 262.448C245.809 262.448 256.664 261.002 266.099 263.53" stroke="#263238" stroke-linecap="round" stroke-linejoin="round"/>
<path d="M224.106 247.983C212.634 240.061 202.624 225.664 201.999 211.9C201.677 204.774 203.03 200.614 204.417 198.255C200.522 200.383 197.135 203.331 194.491 206.896C180.855 225.824 183.442 232.131 182.968 233.103C182.495 234.076 182.022 246.148 187.948 249.471C193.874 252.793 194.593 253.74 198.389 251.846C202.185 249.952 209.54 247.619 210.969 249.707C212.397 251.795 212.152 256.116 213.336 256.826C214.519 257.536 217.368 253.977 219.744 256.826C221.291 258.85 222.348 261.206 222.83 263.707C223.066 264.417 226.152 266.083 226.152 266.083C233.406 262.473 242.883 261.763 242.883 261.763C242.883 261.763 235.579 255.913 224.106 247.983Z" fill="#92E3A9" stroke="#263238" stroke-linecap="round" stroke-linejoin="round"/>
<path d="M264.594 241.862C264.594 241.862 267.645 247.425 276.818 251.626C285.991 255.828 299.763 257.172 300.49 256.031C301.217 254.89 303.17 251.804 298.199 249.335C293.228 246.867 288.637 249.335 286.718 247.425C284.799 245.514 286.152 238.049 279.456 237.669C272.76 237.288 268.939 239.579 267.62 237.288C266.301 234.997 262.455 234.228 262.455 234.228C262.455 234.228 262.877 239.917 264.594 241.862Z" fill="#263238" stroke="#263238" stroke-linecap="round" stroke-linejoin="round"/>
<path d="M218.096 332.067C218.096 332.067 245.487 279.221 285.441 262.464C325.396 245.708 339.903 247.966 351.823 251.829C363.744 255.693 382.436 270.2 382.436 270.2C382.436 270.2 472.447 288.106 496.575 334.164" fill="#92E3A9"/>
<path d="M218.096 332.067C218.096 332.067 245.487 279.221 285.441 262.464C325.396 245.708 339.903 247.966 351.823 251.829C363.744 255.693 382.436 270.2 382.436 270.2C382.436 270.2 472.447 288.106 496.575 334.164" stroke="#263238" stroke-linecap="round" stroke-linejoin="round"/>
<path d="M356.735 274.013C358.629 273.666 360.574 273.353 362.56 273.091" stroke="#263238" stroke-linecap="round" stroke-linejoin="round"/>
<path d="M288.992 318.084C288.992 318.084 305.055 286.804 348.755 275.738" stroke="#263238" stroke-linecap="round" stroke-linejoin="round"/>
<path d="M299.314 293.736C302.902 290.726 306.74 288.028 310.787 285.671" stroke="#263238" stroke-linecap="round" stroke-linejoin="round"/>
<path d="M276.919 320.02C281.909 311.668 288.044 304.055 295.147 297.406" stroke="#263238" stroke-linecap="round" stroke-linejoin="round"/>
<path d="M191.093 232.419C191.093 232.419 205.254 227.287 206.649 226.501C208.044 225.714 216.286 221.225 218.823 220.135C221.359 219.044 231.267 218.579 234.04 217.953C236.813 217.328 238.867 214.572 239.645 215.781C240.423 216.99 239.645 219.044 238.707 220.008C237.768 220.972 232.645 222.958 232.18 223.119C231.715 223.28 242.596 222.958 247.11 222.493C251.625 222.028 255.505 222.958 255.353 224.184C255.201 225.41 254.415 226.053 253.02 226.365C251.625 226.678 245.411 227.143 243.221 227.456C241.032 227.769 236.838 228.699 236.838 228.699C236.838 228.699 243.838 228.851 247.262 228.851C250.686 228.851 256.283 227.921 257.061 228.699C257.838 229.476 258.151 230.567 256.131 231.497C252.908 232.698 249.563 233.538 246.155 233.999C243.517 234.312 234.801 235.555 234.801 235.555C237.571 236.659 240.536 237.189 243.517 237.111C248.962 237.111 251.599 236.493 251.76 237.736C251.921 238.979 251.447 239.917 250.669 240.222C247.797 241.117 244.809 241.584 241.801 241.608H233.406C236.011 242.385 238.658 243.009 241.336 243.477C243.357 243.629 247.406 243.942 247.71 244.871C248.015 245.801 246.468 246.427 244.329 246.74C242.19 247.053 231.504 245.954 229.982 245.835C228.46 245.717 226.406 245.987 223.134 245.987C219.862 245.987 209.447 243.502 209.447 243.502C209.447 243.502 177.406 253.647 176.324 253.917C175.242 254.188 172.9 254.856 172.9 254.856C172.9 254.856 158.435 257.029 144.156 259.675C129.877 262.321 99.8306 265.745 98.4272 264.654C97.0238 263.564 86.1349 211.926 85.0527 206.321L117.559 205.551C117.559 205.551 118.649 225.452 120.518 229.815C120.518 229.815 127.983 229.502 143.53 231.505C159.077 233.509 181.455 235.69 191.093 232.419Z" fill="white" stroke="#263238" stroke-linecap="round" stroke-linejoin="round"/>
<path d="M120.484 229.772C117.38 230.567 114.57 232.24 112.394 234.591" stroke="#263238" stroke-linecap="round" stroke-linejoin="round"/>
<path d="M117.863 136.134C117.863 136.134 92.1542 133.277 84.7231 157.464C77.2919 181.652 81.8655 209.483 81.8655 209.483C81.8655 209.483 90.0492 211.173 102.806 210.049C115.564 208.925 118.43 208.147 118.43 208.147L121.854 192.929C121.854 192.929 125.852 186.834 125.852 174.077" fill="#263238"/>
<path d="M117.863 136.134C117.863 136.134 92.1542 133.277 84.7231 157.464C77.2919 181.652 81.8655 209.483 81.8655 209.483C81.8655 209.483 90.0492 211.173 102.806 210.049C115.564 208.925 118.43 208.147 118.43 208.147L121.854 192.929C121.854 192.929 125.852 186.834 125.852 174.077" stroke="#263238" stroke-linecap="round" stroke-linejoin="round"/>
<path d="M119.368 203.953C105.757 207.073 89.4322 206.278 81.3247 205.593C81.5952 208.045 81.832 209.457 81.832 209.457C81.832 209.457 90.0156 211.148 102.773 210.023C115.53 208.899 118.396 208.121 118.396 208.121L119.368 203.953Z" fill="white" stroke="#263238" stroke-linecap="round" stroke-linejoin="round"/>
</svg>
