<svg width="1000" height="900" viewBox="0 0 1000 900" fill="none" xmlns="http://www.w3.org/2000/svg">
<g clip-path="url(#clip0_5_3)">
<line x1="320.717" y1="466.574" x2="516.717" y2="507.574" stroke="#197A6F" stroke-width="7"/>
<line x1="140.692" y1="301.763" x2="253.692" y2="437.763" stroke="#197A6F" stroke-width="7"/>
<line x1="854.454" y1="286.436" x2="879.454" y2="439.436" stroke="#197A6F" stroke-width="7"/>
<line x1="366.128" y1="195.431" x2="519.128" y2="500.431" stroke="#197A6F" stroke-width="7"/>
<line x1="590.457" y1="163.546" x2="535.457" y2="511.546" stroke="#197A6F" stroke-width="7"/>
<line x1="837.198" y1="259.724" x2="541.198" y2="498.542" stroke="#197A6F" stroke-width="7"/>
<circle cx="527.5" cy="513.5" r="26.5" fill="white"/>
<path d="M530 746.5V794.5L570.5 805.5L612.5 787.5V772.5V748.5V742.5L615 738.5L618 734.5V729L617.5 718L614 714L611 710H608.5V708V699L611 696.5L618.5 684L622.5 672.5L625.5 660L628 652.5L630 645.5V638.5V626.5V618.5V609V599.5V590.5V583V577L628.5 574.5L625.5 570.5L624.5 569.5L623 568L622 567.5L618 567H616L613 567.5L611 568.5L610 569.5L609 570.5C608.833 570.833 608.4 571.6 608 572C607.5 572.5 607.5 573 607 573.5C606.6 573.9 606.5 574.333 606.5 574.5L606 576L605 576.5H604L603.5 575.5V574.5V573.5V572.5L603 571L602.5 569.5L602 568.5L601 567.5L599.5 565.5L596.5 563L595.5 562L593 561H589H587.5L585.5 561.5L584 562L582 563L581 564L579.5 565L579 566L577.5 567L576.5 568.5H574.5V566.5L574 564.5L573 563L571.5 561L570 559L569 557.5L567.5 555.5L565.5 554L562.5 553H559H553L550.5 554.5L547 558L545 562L543.5 564.5L542.5 568H541V515V507.5V505.5L540.5 504.5L539.5 502.5L538 501L536.5 500L535 499L533 498L531 497L529 496H526L524 496.5L521.5 497.5L519.5 499L517 501L515 503L513 505.5L512 507V591.5V601.5V612L511 610.5L510 609L508.5 606L507.5 604L505 599.5L500.5 591.5L496 584L491.5 577L485.5 572.5H478L472.5 576L469.5 582.5L469 589L471 594L474 602L477.5 610L482 618L485 625.5L488.5 633.5L492 641L495 647L498 653L501 659L504 665.5L506.5 671.5L509 677L512 682.5L515 687L518.5 692L522 695.5L524.5 697L527.5 698.5L529 699.5L531 701L532.5 702L533 702.5L533.5 703.5V705V707V710.5H531.5L530.5 711.5L529 713L527.5 714.5L525 717L522.5 720V729.5V734L524 737L526 741L528 744L530 746.5Z" fill="#EDBF84"/>
<path d="M527.737 748V770.5L566.937 790L612.842 774.5V743L618 736V721H520V736L527.737 748Z" fill="#20425B"/>
<path d="M568.5 721.5V789.5L613 774.5V743L618 736V721L568.5 721.5Z" fill="#34495E"/>
<path d="M568 780L0 497V894.5H1000.5V635L568 780Z" fill="#197A6F"/>
<rect x="520" y="705" width="104" height="42" rx="21" fill="white"/>
<path d="M479.721 580H472.884L468 584.54V588.667L479.721 606L489 599.81L488.023 589.905L484.116 584.54L479.721 580Z" fill="#FCD9BB"/>
<path d="M519 505L516 509.5V518.5L518 522.5L522.5 525.5H531L535.5 523L539 517.5V509.5L535.5 505L530 502H524L519 505Z" fill="#FED7AE"/>
<ellipse cx="268" cy="458.935" rx="65" ry="66.9346" fill="white"/>
<ellipse cx="889" cy="458.935" rx="65" ry="66.9346" fill="white"/>
<ellipse cx="614" cy="114.935" rx="65" ry="66.9346" fill="white"/>
<ellipse cx="363" cy="140.935" rx="65" ry="66.9346" fill="white"/>
<ellipse cx="138" cy="248.935" rx="65" ry="66.9346" fill="white"/>
<ellipse cx="865" cy="236.935" rx="65" ry="66.9346" fill="white"/>
<path d="M614 86.6846L611.446 105.52L646.671 102.965V86.6846H614Z" fill="#B4D2D7"/>
<path d="M614 86.6846H581.329V102.965L614 105.52V86.6846Z" fill="#E1EBF0"/>
<path d="M587.434 92.9111H591.504V96.7398H587.434V92.9111Z" fill="#FF3939"/>
<path d="M595.575 92.9111H599.645V96.7398H595.575V92.9111Z" fill="#FF9F22"/>
<path d="M603.715 92.9111H607.786V96.7398H603.715V92.9111Z" fill="#15CCC2"/>
<path d="M614 143.668H646.671V102.966H614L611.446 123.317L614 143.668Z" fill="#03232E"/>
<path d="M581.329 102.966H614V143.668H581.329V102.966Z" fill="#07485E"/>
<path d="M626.999 117.332H640.566V121.161H626.999V117.332Z" fill="#EFE2DD"/>
<path d="M626.999 125.473H640.566V129.301H626.999V125.473Z" fill="#EFE2DD"/>
<path d="M626.999 133.613H640.566V137.442H626.999V133.613Z" fill="#EFE2DD"/>
<path d="M640.566 109.191H614L612.723 111.106L614 113.02H640.566V109.191Z" fill="#15CCC2"/>
<path d="M623.167 137.441V117.332H614L611.446 127.387L614 137.441H623.167Z" fill="#7ED8F6"/>
<path d="M587.434 109.191H614V113.02H587.434V109.191Z" fill="#6FE8D5"/>
<path d="M587.434 117.332H614V137.442H587.434V117.332Z" fill="#BEEBFA"/>
<path d="M874.75 487.75C876 489.125 884.625 489 886.125 488C889.25 486.125 911 460 892.125 452.375C877.75 446.5 874.625 459.75 873.125 460.875C870.25 463.125 872.375 485.125 874.75 487.75Z" fill="#B58360"/>
<path d="M917.45 486.875C895.7 487 906.325 490.125 888.95 490.125C882.075 490.125 876.2 485.625 876.2 479.375V479.25C886.95 472.125 868.95 475.25 871.7 458.375C872.575 452.75 878.575 452.375 886.45 451.625C893.075 451 915.45 459.5 915.45 459.5C923.45 462.375 926.45 486.875 917.45 486.875Z" fill="#D6A57C"/>
<path d="M870.575 448C874.075 445.625 890.575 452 890.575 452L880.45 477.5C880.45 477.5 844.7 476.5 856.325 466.75C866.075 458.625 865.7 451.375 870.575 448Z" fill="#D6A57C"/>
<path d="M858.75 467.875C856 474.75 881.125 475.875 884.5 476L883.875 477.5C883.875 477.5 850.875 476.5 858.75 467.875Z" fill="#B58360"/>
<path d="M883.5 462.875C887.75 469.375 889.625 470.75 889.625 470.75C889.625 470.75 885.375 469.75 882.5 465.5L883.5 462.875Z" fill="#B58360"/>
<path d="M883.25 461.5C885.125 461.5 883.25 470.625 885.375 473.125C884.875 474.75 881.625 473.75 881.625 473.75C881.625 473.75 882.625 462.5 882.5 461.875L883.25 461.5Z" fill="#B58360"/>
<path d="M873.5 469.625L875.375 471.5C875.375 471.5 892.5 455.75 897.25 452.625L891.625 451.375L873.5 469.625Z" fill="#B58360"/>
<path d="M859.625 474.625L865.125 480L908.5 436.875L903 431.5L859.625 474.625Z" fill="#428BC1"/>
<path d="M903.875 432.5L907.5 436L912.25 431.375L908.625 427.75L903.875 432.5Z" fill="#574137"/>
<path d="M896.25 436.625L903.25 443.5L904.5 442.375L897.5 435.375L896.25 436.625Z" fill="#574137"/>
<path d="M885 445.875L886 446.75L897.5 435.375L896.5 434.5L885 445.875Z" fill="#574137"/>
<path d="M865.125 480L852.875 486.75L859.625 474.625L865.125 480Z" fill="#A9B5AE"/>
<path d="M851.5 487.25L852.375 488.125L854.875 485.625L854 484.75L851.5 487.25Z" fill="#574137"/>
<path d="M898.25 483.25C898.5 482.5 898.625 481.875 898.75 481.125C898.875 480.75 899 480.375 899.125 479.875C900.375 474.5 880 471 880 471L878.5 470.625C875.25 469.875 868.125 469 862.875 475C859.25 479.25 863 483.5 866.375 483.75C875.5 484.625 882.25 486.875 887.375 489C891.875 491.125 896.375 488.75 898.25 483.25Z" fill="#D6A57C"/>
<path d="M878.375 472.625C875.125 471.5 869.875 468.625 863.125 474.625C869.375 467 879.5 470.875 879.875 471C889.375 472.25 895.625 468.5 895.625 468.5C893.75 473.25 883.125 474.25 878.375 472.625Z" fill="#B58360"/>
<path d="M893.125 488.5C910.5 488.5 900 485.375 921.625 485.25C923.5 485.25 925 483.375 925.875 481.625C925.25 485 923.375 486.875 921 486.875C899.25 487 909.75 490.25 892.375 490.25C885.5 490.25 879 486.75 873.5 485C873.375 484.875 886.625 488.5 893.125 488.5Z" fill="#B58360"/>
<path d="M897.775 206.812H871.325L865.288 218.887H831.363V230.387H820.438L831.363 267.188H903.812V206.812H897.775ZM877.075 212.85H897.487V218.887H874.2L877.075 212.85ZM892.888 230.387H837.975V224.925H897.775V246.85L892.888 230.387Z" fill="#7BBEDB"/>
<path d="M858.922 225.517L853.739 230.701L851.148 225.517L853.739 222.927L858.922 225.517Z" fill="#C0C0C0"/>
<path d="M867.219 225.247H859.885L861.72 219.75H865.382L867.219 225.247Z" fill="#C0C0C0"/>
<path d="M873.271 230.922L868.088 225.739L873.271 223.148L875.865 225.739L873.271 230.922Z" fill="#C0C0C0"/>
<path d="M873.542 239.22V231.886L879.039 233.72V237.383L873.542 239.22Z" fill="#C0C0C0"/>
<path d="M867.866 245.272L873.05 240.088L875.64 245.272L873.05 247.865L867.866 245.272Z" fill="#C0C0C0"/>
<path d="M859.572 245.542H866.903L865.072 251.039H861.406L859.572 245.542Z" fill="#C0C0C0"/>
<path d="M853.517 239.866L858.701 245.05L853.517 247.64L850.927 245.05L853.517 239.866Z" fill="#C0C0C0"/>
<path d="M853.247 231.572V238.904L847.75 237.072V233.407L853.247 231.572Z" fill="#C0C0C0"/>
<path d="M852.531 235.396C852.531 232.883 853.403 230.448 854.997 228.505C856.591 226.563 858.809 225.233 861.274 224.743C863.738 224.253 866.297 224.632 868.513 225.817C870.729 227.001 872.466 228.917 873.428 231.239C874.389 233.56 874.517 236.143 873.787 238.548C873.058 240.953 871.518 243.03 869.429 244.426C867.339 245.823 864.831 246.451 862.33 246.206C859.829 245.96 857.491 244.854 855.714 243.078C854.705 242.069 853.904 240.871 853.358 239.553C852.812 238.235 852.531 236.822 852.531 235.396ZM863.396 239.493C864.344 239.493 865.262 239.164 865.995 238.563C866.728 237.962 867.229 237.126 867.415 236.196C867.6 235.267 867.457 234.302 867.01 233.466C866.564 232.63 865.841 231.974 864.966 231.611C864.09 231.248 863.116 231.2 862.209 231.475C861.302 231.749 860.518 232.33 859.991 233.118C859.464 233.906 859.227 234.852 859.319 235.795C859.412 236.738 859.828 237.62 860.498 238.291C860.878 238.672 861.33 238.974 861.827 239.18C862.325 239.386 862.858 239.492 863.396 239.493Z" fill="#C0C0C0"/>
<path d="M863.562 245.45C865.553 245.418 867.489 244.797 869.127 243.665C870.764 242.532 872.029 240.939 872.761 239.088C873.493 237.237 873.659 235.21 873.238 233.264C872.818 231.318 871.83 229.541 870.399 228.156C868.968 226.772 867.159 225.844 865.2 225.488C863.241 225.132 861.221 225.366 859.395 226.159C857.569 226.952 856.019 228.268 854.942 229.942C853.864 231.616 853.307 233.572 853.342 235.563C853.388 238.229 854.49 240.767 856.407 242.621C858.323 244.475 860.897 245.492 863.562 245.45ZM863.238 226.886C864.92 226.856 866.574 227.326 867.99 228.236C869.406 229.146 870.52 230.456 871.192 231.999C871.863 233.542 872.062 235.25 871.763 236.907C871.464 238.563 870.681 240.093 869.512 241.304C868.343 242.516 866.841 243.353 865.197 243.71C863.552 244.068 861.838 243.93 860.272 243.313C858.706 242.697 857.358 241.63 856.398 240.247C855.438 238.865 854.91 237.228 854.88 235.546C854.861 234.428 855.062 233.317 855.472 232.276C855.881 231.236 856.492 230.287 857.269 229.483C858.046 228.679 858.974 228.035 859.999 227.59C861.025 227.144 862.128 226.905 863.246 226.886H863.238Z" fill="#A9A9A9"/>
<path d="M863.531 243.216C865.078 243.19 866.582 242.705 867.854 241.823C869.126 240.942 870.108 239.703 870.675 238.263C871.243 236.824 871.37 235.248 871.042 233.736C870.715 232.224 869.945 230.843 868.833 229.768C867.72 228.693 866.313 227.972 864.79 227.696C863.268 227.421 861.698 227.603 860.278 228.22C858.859 228.837 857.655 229.861 856.818 231.162C855.981 232.463 855.549 233.984 855.576 235.531C855.593 236.558 855.813 237.571 856.222 238.514C856.632 239.456 857.223 240.308 857.961 241.021C858.7 241.735 859.572 242.296 860.528 242.673C861.483 243.049 862.504 243.234 863.531 243.216ZM863.315 230.925C864.199 230.91 865.068 231.157 865.811 231.636C866.554 232.114 867.139 232.802 867.492 233.613C867.844 234.423 867.949 235.32 867.791 236.19C867.634 237.06 867.223 237.864 866.609 238.5C865.995 239.136 865.206 239.576 864.342 239.764C863.478 239.952 862.578 239.879 861.755 239.556C860.933 239.232 860.225 238.672 859.72 237.946C859.216 237.22 858.938 236.36 858.922 235.476C858.911 234.889 859.017 234.305 859.232 233.759C859.447 233.212 859.767 232.713 860.175 232.29C860.583 231.868 861.071 231.53 861.609 231.295C862.148 231.061 862.728 230.935 863.315 230.925Z" fill="url(#paint0_radial_5_3)"/>
<path d="M863.476 239.875C864.36 239.859 865.22 239.581 865.946 239.077C866.672 238.572 867.232 237.863 867.556 237.04C867.879 236.217 867.951 235.317 867.763 234.453C867.575 233.589 867.134 232.8 866.498 232.187C865.861 231.573 865.057 231.162 864.186 231.005C863.316 230.849 862.419 230.954 861.608 231.307C860.798 231.66 860.11 232.246 859.633 232.99C859.155 233.735 858.909 234.604 858.925 235.488C858.947 236.673 859.439 237.801 860.292 238.624C861.146 239.447 862.291 239.897 863.476 239.875ZM863.33 231.624C864.078 231.61 864.813 231.819 865.443 232.223C866.073 232.628 866.568 233.21 866.867 233.896C867.166 234.582 867.254 235.342 867.121 236.078C866.989 236.815 866.64 237.495 866.121 238.034C865.601 238.572 864.933 238.945 864.202 239.104C863.471 239.263 862.709 239.201 862.012 238.927C861.316 238.653 860.717 238.179 860.29 237.564C859.863 236.949 859.628 236.222 859.615 235.473C859.599 234.471 859.981 233.504 860.677 232.783C861.374 232.063 862.328 231.648 863.33 231.63V231.624Z" fill="#A9A9A9"/>
<path d="M898.27 247.818L893.365 245.096L896.522 241.715L899.466 243.348L898.27 247.818Z" fill="#C0C0C0"/>
<path d="M902.973 254.592L900.083 249.785L904.508 248.434L906.242 251.32L902.973 254.592Z" fill="#C0C0C0"/>
<path d="M903.657 262.811L903.56 257.202L908.068 258.246L908.125 261.61L903.657 262.811Z" fill="#C0C0C0"/>
<path d="M900.141 270.269L902.861 265.364L906.242 268.521L904.612 271.465L900.141 270.269Z" fill="#C0C0C0"/>
<path d="M893.365 274.973L898.175 272.084L899.523 276.509L896.639 278.242L893.365 274.973Z" fill="#C0C0C0"/>
<path d="M885.145 275.657L890.757 275.56L889.713 280.068L886.347 280.125L885.145 275.657Z" fill="#C0C0C0"/>
<path d="M877.687 272.141L882.592 274.86L879.435 278.241L876.491 276.611L877.687 272.141Z" fill="#C0C0C0"/>
<path d="M872.984 265.364L875.873 270.174L871.449 271.523L869.715 268.639L872.984 265.364Z" fill="#C0C0C0"/>
<path d="M872.3 257.146L872.397 262.758L867.892 261.714L867.832 258.347L872.3 257.146Z" fill="#C0C0C0"/>
<path d="M875.819 249.687L873.096 254.592L869.715 251.435L871.348 248.491L875.819 249.687Z" fill="#C0C0C0"/>
<path d="M882.592 244.984L877.785 247.873L876.434 243.448L879.32 241.715L882.592 244.984Z" fill="#C0C0C0"/>
<path d="M890.812 244.3L885.203 244.398L886.246 239.892L889.61 239.832L890.812 244.3Z" fill="#C0C0C0"/>
<path d="M887.712 243.82C891.454 243.753 895.104 244.986 898.038 247.309C900.973 249.632 903.011 252.9 903.806 256.557C904.601 260.214 904.103 264.034 902.397 267.365C900.691 270.696 897.883 273.333 894.451 274.825C891.019 276.318 887.175 276.574 883.575 275.55C879.976 274.526 876.842 272.286 874.709 269.21C872.576 266.135 871.576 262.416 871.878 258.685C872.181 254.955 873.767 251.445 876.368 248.753C879.346 245.67 883.427 243.896 887.712 243.82ZM881.914 260.087C881.936 261.492 882.445 262.846 883.354 263.918C884.262 264.989 885.515 265.713 886.898 265.965C888.28 266.216 889.707 265.98 890.935 265.298C892.164 264.615 893.117 263.527 893.633 262.22C894.149 260.913 894.195 259.467 893.765 258.129C893.334 256.792 892.452 255.645 891.27 254.884C890.089 254.124 888.68 253.797 887.284 253.959C885.888 254.122 884.591 254.763 883.616 255.774C882.5 256.93 881.888 258.481 881.914 260.087Z" fill="#C0C0C0"/>
<path d="M888.233 274.505C891.106 274.455 893.899 273.554 896.26 271.916C898.621 270.279 900.443 267.978 901.497 265.305C902.55 262.631 902.787 259.706 902.177 256.898C901.568 254.09 900.139 251.526 898.072 249.53C896.006 247.534 893.393 246.195 890.566 245.684C887.738 245.173 884.823 245.511 882.188 246.657C879.553 247.803 877.317 249.704 875.762 252.121C874.208 254.537 873.405 257.36 873.455 260.233C873.523 264.085 875.118 267.752 877.889 270.428C880.66 273.105 884.381 274.571 888.233 274.505ZM887.764 247.69C890.195 247.647 892.583 248.327 894.627 249.642C896.671 250.957 898.28 252.848 899.249 255.077C900.218 257.306 900.505 259.773 900.073 262.165C899.64 264.557 898.508 266.767 896.82 268.515C895.131 270.264 892.963 271.473 890.587 271.989C888.212 272.505 885.737 272.305 883.475 271.415C881.214 270.524 879.267 268.983 877.881 266.986C876.495 264.989 875.732 262.626 875.689 260.196C875.661 258.582 875.95 256.978 876.542 255.476C877.133 253.974 878.015 252.603 879.136 251.441C880.257 250.28 881.596 249.351 883.077 248.707C884.557 248.063 886.15 247.718 887.764 247.69Z" fill="#A9A9A9"/>
<path d="M888.175 271.193C890.393 271.154 892.549 270.459 894.371 269.196C896.193 267.932 897.6 266.156 898.413 264.093C899.226 262.03 899.409 259.772 898.939 257.605C898.468 255.437 897.366 253.458 895.771 251.918C894.176 250.377 892.16 249.344 889.978 248.949C887.796 248.554 885.545 248.815 883.512 249.699C881.478 250.583 879.752 252.05 878.552 253.915C877.352 255.78 876.732 257.959 876.77 260.176C876.796 261.648 877.111 263.101 877.698 264.451C878.285 265.802 879.132 267.023 880.191 268.046C881.25 269.07 882.5 269.874 883.87 270.414C885.24 270.954 886.703 271.218 888.175 271.193ZM887.873 253.865C889.083 253.844 890.273 254.182 891.291 254.836C892.309 255.491 893.109 256.432 893.592 257.542C894.075 258.652 894.218 259.88 894.002 261.071C893.787 262.262 893.223 263.362 892.383 264.232C891.542 265.103 890.462 265.705 889.279 265.961C888.096 266.218 886.864 266.118 885.738 265.674C884.612 265.23 883.643 264.463 882.954 263.468C882.264 262.473 881.885 261.297 881.865 260.087C881.836 258.465 882.453 256.899 883.579 255.732C884.706 254.566 886.252 253.894 887.873 253.865Z" fill="url(#paint1_radial_5_3)"/>
<path d="M888.095 266.681C889.42 266.658 890.708 266.242 891.797 265.487C892.886 264.731 893.726 263.67 894.212 262.436C894.697 261.203 894.806 259.854 894.525 258.559C894.244 257.264 893.585 256.081 892.632 255.161C891.679 254.24 890.474 253.623 889.17 253.386C887.866 253.15 886.521 253.306 885.305 253.834C884.09 254.363 883.058 255.239 882.341 256.353C881.624 257.468 881.253 258.77 881.275 260.095C881.29 260.975 881.479 261.844 881.83 262.652C882.18 263.459 882.687 264.19 883.32 264.801C883.954 265.413 884.701 265.894 885.52 266.216C886.34 266.539 887.215 266.697 888.095 266.681ZM887.879 254.319C889.001 254.299 890.103 254.613 891.047 255.219C891.991 255.826 892.733 256.699 893.181 257.728C893.628 258.757 893.761 259.895 893.561 261C893.361 262.104 892.839 263.124 892.06 263.931C891.28 264.738 890.279 265.296 889.183 265.534C888.086 265.772 886.944 265.679 885.9 265.268C884.856 264.857 883.958 264.145 883.318 263.224C882.679 262.302 882.327 261.211 882.308 260.089C882.294 259.344 882.428 258.604 882.701 257.911C882.973 257.218 883.38 256.585 883.898 256.049C884.415 255.514 885.033 255.085 885.716 254.788C886.399 254.491 887.134 254.332 887.879 254.319Z" fill="#A9A9A9"/>
<g clip-path="url(#clip1_5_3)">
<path d="M341.505 130.516V145.617H332.367C331.715 145.617 331.174 145.09 331.174 144.425V131.695C331.174 131.043 331.701 130.502 332.367 130.502H341.505V130.516Z" fill="#FC8A8A"/>
<path d="M341.505 142.954V145.603H332.367C331.715 145.603 331.174 145.076 331.174 144.411V141.748C331.174 142.414 331.701 142.941 332.367 142.941H341.505V142.954Z" fill="#F96364"/>
<path d="M341.505 130.516V133.164H332.367C331.715 133.164 331.174 133.691 331.174 134.357V131.708C331.174 131.043 331.701 130.516 332.367 130.516H341.505Z" fill="#FCB0B0"/>
<path d="M327.555 133.372V142.746C327.555 143.398 328.082 143.939 328.747 143.939H331.188V132.193H328.747C328.082 132.193 327.555 132.72 327.555 133.372Z" fill="#D3D9D9"/>
<path d="M331.188 132.193V134.218H328.747C328.096 134.218 327.555 134.745 327.555 135.411V133.386C327.555 132.734 328.082 132.193 328.747 132.193H331.188Z" fill="#E8EAEA"/>
<path d="M331.188 141.914V143.939H328.747C328.096 143.939 327.555 143.412 327.555 142.746V140.722C327.555 141.373 328.082 141.914 328.747 141.914H331.188Z" fill="#A8B2B4"/>
<path d="M367.548 118.271L341.505 130.515V145.617L367.548 157.861V118.271Z" fill="#FEDD8E"/>
<path d="M372.748 117.952V158.167C372.748 158.791 372.235 159.318 371.597 159.318H368.699C368.075 159.318 367.548 158.805 367.548 158.167V117.952C367.548 117.328 368.061 116.801 368.699 116.801H371.597C372.221 116.801 372.748 117.328 372.748 117.952Z" fill="#FC8A8A"/>
<path d="M372.748 117.952V121.1C372.748 120.476 372.235 119.949 371.597 119.949H368.699C368.075 119.949 367.548 120.462 367.548 121.1V117.952C367.548 117.328 368.061 116.801 368.699 116.801H371.597C372.221 116.801 372.748 117.328 372.748 117.952Z" fill="#FCB0B0"/>
<path d="M372.748 155.019V158.166C372.748 158.79 372.235 159.317 371.597 159.317H368.699C368.075 159.317 367.548 158.804 367.548 158.166V155.019C367.548 155.643 368.061 156.17 368.699 156.17H371.597C372.221 156.17 372.748 155.656 372.748 155.019Z" fill="#F96364"/>
<path d="M367.548 153.784L341.505 141.72V145.616L367.548 157.861V153.784Z" fill="#FDD367"/>
<path d="M367.548 118.271L341.505 130.515V134.412L367.548 122.347V118.271Z" fill="#FEE9B4"/>
<path d="M340.299 151.816C340.299 153.369 339.12 153.369 339.12 154.908C339.12 156.461 340.299 156.461 340.299 158.001C340.299 159.554 339.12 159.554 339.12 161.093C339.12 162.646 340.299 162.646 340.299 164.185H333.739C332.991 164.185 332.38 163.589 332.38 162.84V145.617H340.299C340.299 147.17 339.12 147.17 339.12 148.71C339.12 150.263 340.299 150.263 340.299 151.816Z" fill="#D3D9D9"/>
<path d="M339.12 148.709C339.12 148.737 339.12 148.778 339.12 148.806H332.38V145.603H340.312C340.312 147.17 339.12 147.17 339.12 148.709Z" fill="#E8EAEA"/>
<path d="M340.312 164.199H333.739C333.004 164.199 332.38 163.603 332.38 162.854V159.65C332.38 160.399 332.991 160.996 333.739 160.996H339.12C339.12 161.023 339.12 161.065 339.12 161.093C339.12 162.646 340.312 162.646 340.312 164.199Z" fill="#A8B2B4"/>
<path d="M371.597 116.246H368.699C367.77 116.246 367.021 116.995 367.007 117.91L341.394 129.961H332.38C331.438 129.961 330.675 130.71 330.647 131.639H328.747C327.79 131.639 327 132.415 327 133.386V142.76C327 143.717 327.777 144.507 328.747 144.507H330.633C330.661 145.256 331.16 145.866 331.826 146.088V162.868C331.826 163.921 332.686 164.781 333.739 164.781H340.313C340.618 164.781 340.867 164.532 340.867 164.227C340.867 163.27 340.479 162.757 340.16 162.341C339.522 161.509 339.494 160.787 340.16 159.928C341.089 158.721 341.158 157.459 340.16 156.156C339.508 155.296 339.508 154.575 340.16 153.729C341.117 152.453 341.117 151.233 340.16 149.957C339.536 149.139 339.494 148.418 340.16 147.544C340.41 147.225 340.701 146.823 340.812 146.213H341.38L366.993 158.264C367.021 159.179 367.77 159.928 368.685 159.928H371.583C372.526 159.928 373.289 159.165 373.289 158.222V118.007C373.303 117.009 372.54 116.246 371.597 116.246ZM330.633 143.384H328.747C328.401 143.384 328.109 143.107 328.109 142.746V133.372C328.109 133.025 328.387 132.734 328.747 132.734H330.633V143.384ZM339.272 153.022C338.316 154.27 338.329 155.573 339.272 156.794C339.938 157.667 339.91 158.388 339.272 159.221C338.329 160.441 338.316 161.717 339.272 162.992C339.439 163.214 339.578 163.395 339.661 163.644H333.739C333.296 163.644 332.935 163.284 332.935 162.84V146.171H339.661C339.578 146.421 339.439 146.615 339.272 146.837C338.302 148.085 338.329 149.389 339.272 150.609C339.924 151.427 339.938 152.162 339.272 153.022ZM340.95 145.062H332.367C332.02 145.062 331.729 144.785 331.729 144.424V131.694C331.729 131.347 332.006 131.056 332.367 131.056H340.95V145.062ZM366.993 156.988L342.06 145.256V130.862L366.993 119.144V156.988ZM372.193 158.167C372.193 158.486 371.916 158.763 371.597 158.763H368.699C368.38 158.763 368.102 158.486 368.102 158.167V117.952C368.102 117.633 368.38 117.355 368.699 117.355H371.597C371.916 117.355 372.193 117.633 372.193 117.952V158.167Z" fill="#333333"/>
<path d="M397.445 114.971C397.445 120.157 393.23 124.372 388.029 124.372C386.31 124.372 384.701 123.915 383.315 123.111L377.532 125.454L379.876 119.671C379.071 118.285 378.614 116.676 378.614 114.971C378.614 109.77 382.829 105.555 388.029 105.555C393.23 105.555 397.445 109.77 397.445 114.971Z" fill="#7AD1F9"/>
<path d="M385.339 118.854C385.998 118.854 386.532 118.32 386.532 117.661C386.532 117.003 385.998 116.469 385.339 116.469C384.681 116.469 384.147 117.003 384.147 117.661C384.147 118.32 384.681 118.854 385.339 118.854Z" fill="#D3F0FD"/>
<path d="M391.566 113.113C391.094 113.584 390.345 113.584 389.874 113.113C389.416 112.641 389.416 111.892 389.874 111.435C390.345 110.963 391.094 110.963 391.566 111.435C392.023 111.892 392.023 112.641 391.566 113.113Z" fill="#D3F0FD"/>
<path d="M388.029 116.163C388.688 116.163 389.222 115.63 389.222 114.971C389.222 114.312 388.688 113.778 388.029 113.778C387.371 113.778 386.837 114.312 386.837 114.971C386.837 115.63 387.371 116.163 388.029 116.163Z" fill="#D3F0FD"/>
<path d="M397.445 114.971C397.445 120.157 393.23 124.373 388.029 124.373C386.31 124.373 384.701 123.915 383.315 123.111L377.532 125.454L378.683 122.612L382.982 120.864C384.369 121.669 385.977 122.126 387.697 122.126C392.897 122.126 397.112 117.911 397.112 112.724C397.112 112.641 397.112 112.558 397.112 112.475C397.32 113.265 397.445 114.097 397.445 114.971Z" fill="#4CC3F7"/>
<path d="M397.445 114.735C396.35 110.741 392.703 107.815 388.362 107.815C383.162 107.815 378.946 112.031 378.946 117.231C378.946 117.314 378.946 117.383 378.946 117.453C378.724 116.662 378.614 115.83 378.614 114.984C378.614 109.784 382.829 105.568 388.029 105.568C393.146 105.555 397.32 109.645 397.445 114.735Z" fill="#A6E1FB"/>
<path d="M394.686 147.156C391.011 150.831 385.062 150.831 381.373 147.156C380.153 145.936 379.349 144.466 378.933 142.927L374.343 140.5L378.946 138.073C379.362 136.52 380.167 135.064 381.387 133.858C385.062 130.183 391.025 130.183 394.7 133.858C398.36 137.519 398.36 143.481 394.686 147.156Z" fill="#7BDE9E"/>
<path d="M394.686 147.156C391.011 150.831 385.062 150.831 381.373 147.156C380.153 145.936 379.349 144.466 378.933 142.927L374.343 140.5L378.946 138.073C379.362 136.52 380.167 135.064 381.387 133.858C385.062 130.183 391.025 130.183 394.7 133.858C398.36 137.519 398.36 143.481 394.686 147.156Z" fill="#7BDE9E"/>
<path d="M385.228 140.5C385.228 141.194 384.646 141.776 383.953 141.776C383.245 141.776 382.677 141.194 382.677 140.5C382.677 139.793 383.245 139.225 383.953 139.225C384.66 139.225 385.228 139.793 385.228 140.5Z" fill="#D3F3DE"/>
<path d="M393.396 140.5C393.396 141.208 392.827 141.776 392.12 141.776C391.427 141.776 390.844 141.208 390.844 140.5C390.844 139.793 391.413 139.225 392.12 139.225C392.827 139.225 393.396 139.793 393.396 140.5Z" fill="#D3F3DE"/>
<path d="M389.319 140.5C389.319 141.208 388.737 141.776 388.043 141.776C387.336 141.776 386.768 141.208 386.768 140.5C386.768 139.807 387.336 139.225 388.043 139.225C388.737 139.225 389.305 139.793 389.319 140.5Z" fill="#D3F3DE"/>
<path d="M395.532 146.185C395.282 146.518 394.991 146.851 394.686 147.156C391.011 150.831 385.062 150.831 381.373 147.156C380.153 145.936 379.349 144.466 378.933 142.927L374.343 140.5L376.27 139.474L380.208 141.554C380.611 143.107 381.429 144.577 382.649 145.783C386.185 149.319 391.843 149.458 395.532 146.185Z" fill="#50D27E"/>
<path d="M394.686 147.157C394.547 147.295 394.408 147.434 394.27 147.545C397.071 143.856 396.794 138.573 393.424 135.203C389.888 131.667 384.216 131.542 380.527 134.815C380.791 134.468 381.068 134.149 381.387 133.83C385.062 130.156 391.025 130.156 394.7 133.83C398.361 137.519 398.361 143.482 394.686 147.157Z" fill="#A7E9BF"/>
<path d="M397.445 166.03C397.445 171.23 393.23 175.446 388.029 175.446C382.843 175.446 378.628 171.23 378.628 166.03C378.628 164.31 379.085 162.702 379.889 161.315L377.546 155.532L383.329 157.876C384.715 157.071 386.324 156.614 388.029 156.614C393.23 156.614 397.445 160.829 397.445 166.03Z" fill="#BD90BE"/>
<path d="M388.931 165.128C389.43 165.627 389.43 166.431 388.931 166.93C388.432 167.43 387.627 167.43 387.128 166.93C386.629 166.431 386.629 165.627 387.128 165.128C387.627 164.642 388.432 164.642 388.931 165.128Z" fill="#E9DAE9"/>
<path d="M385.145 164.421C385.85 164.421 386.421 163.85 386.421 163.145C386.421 162.44 385.85 161.869 385.145 161.869C384.441 161.869 383.869 162.44 383.869 163.145C383.869 163.85 384.441 164.421 385.145 164.421Z" fill="#E9DAE9"/>
<path d="M391.815 169.815C391.316 170.314 390.512 170.314 390.013 169.815C389.513 169.316 389.513 168.511 390.013 168.012C390.512 167.513 391.316 167.513 391.815 168.012C392.315 168.511 392.315 169.329 391.815 169.815Z" fill="#E9DAE9"/>
<path d="M397.445 166.029C397.445 171.229 393.23 175.445 388.029 175.445C382.912 175.445 378.752 171.354 378.627 166.265C379.723 170.259 383.37 173.185 387.697 173.185C392.897 173.185 397.112 168.969 397.112 163.769C397.112 163.686 397.112 163.603 397.112 163.533C397.32 164.338 397.445 165.17 397.445 166.029Z" fill="#A76BA8"/>
<path d="M397.112 165.794C396.017 161.8 392.37 158.874 388.029 158.874C386.31 158.874 384.701 159.331 383.328 160.136L378.253 158.083L377.227 155.56L383.009 157.903C384.396 157.099 386.005 156.641 387.71 156.641C392.827 156.613 396.988 160.704 397.112 165.794Z" fill="#D3B5D3"/>
<path d="M377.546 126.009C377.407 126.009 377.255 125.953 377.158 125.842C377.005 125.69 376.95 125.454 377.033 125.246L379.279 119.713C378.489 118.271 378.073 116.635 378.073 114.971C378.073 109.479 382.538 105 388.043 105C393.549 105 398 109.465 398 114.971C398 120.462 393.535 124.927 388.029 124.927C386.365 124.927 384.729 124.511 383.287 123.721L377.754 125.967C377.685 125.995 377.615 126.009 377.546 126.009ZM388.029 106.109C383.148 106.109 379.168 110.089 379.168 114.971C379.168 116.524 379.584 118.063 380.361 119.394C380.444 119.547 380.458 119.727 380.403 119.879L378.558 124.442L383.12 122.597C383.273 122.528 383.453 122.542 383.606 122.625C384.951 123.402 386.476 123.818 388.043 123.818C392.925 123.818 396.904 119.852 396.904 114.971C396.891 110.089 392.911 106.109 388.029 106.109Z" fill="#333333"/>
<path d="M380.985 147.545C379.792 146.352 378.933 144.896 378.475 143.302L374.093 140.986C373.913 140.889 373.802 140.695 373.802 140.5C373.802 140.292 373.913 140.112 374.093 140.015L378.475 137.699C378.946 136.104 379.806 134.648 380.985 133.47C384.868 129.587 391.191 129.587 395.074 133.47C396.96 135.356 398 137.852 398 140.514C398 143.177 396.96 145.673 395.074 147.559C391.205 151.414 384.896 151.442 380.985 147.545ZM375.535 140.5L379.21 142.428C379.349 142.497 379.446 142.622 379.487 142.775C379.876 144.272 380.666 145.645 381.775 146.754C385.228 150.207 390.845 150.207 394.297 146.754C397.75 143.302 397.75 137.685 394.297 134.232C390.845 130.779 385.228 130.779 381.775 134.232C380.68 135.328 379.876 136.701 379.487 138.198C379.446 138.351 379.349 138.476 379.21 138.545L375.535 140.5Z" fill="#333333"/>
<path d="M388.029 176C382.538 176 378.073 171.535 378.073 166.029C378.073 164.365 378.489 162.729 379.279 161.287L377.033 155.754C376.95 155.546 376.991 155.31 377.158 155.158C377.31 155.005 377.56 154.95 377.754 155.033L383.287 157.279C384.729 156.489 386.365 156.073 388.029 156.073C393.521 156.073 398 160.538 398 166.043C398 171.535 393.521 176 388.029 176ZM378.558 156.544L380.403 161.107C380.472 161.259 380.458 161.439 380.361 161.592C379.584 162.923 379.168 164.462 379.168 166.016C379.168 170.897 383.134 174.877 388.016 174.877C392.897 174.877 396.877 170.897 396.877 166.016C396.877 161.134 392.897 157.154 388.016 157.154C386.463 157.154 384.923 157.57 383.592 158.347C383.439 158.43 383.259 158.444 383.107 158.389L378.558 156.544Z" fill="#333333"/>
</g>
<g clip-path="url(#clip2_5_3)">
<path d="M158.145 219.946H154.568V249.429L158.145 246.874C158.753 246.874 159.245 246.382 159.245 245.774V221.045C159.245 220.438 158.753 219.946 158.145 219.946Z" fill="#FFCD60"/>
<path d="M154.568 219.946H115.747C115.139 219.946 114.647 220.438 114.647 221.045V224.878L109.454 227.475L114.647 230.072V245.518C114.647 246.127 115.139 246.618 115.747 246.618H154.568C155.176 246.618 155.668 246.127 155.668 245.518V221.045C155.668 220.438 155.176 219.946 154.568 219.946Z" fill="#FFDB8A"/>
<path d="M154.172 274.661L155.803 278.047H158.359C159.889 278.047 161.692 276.106 161.692 274.661H154.172Z" fill="#FF754F"/>
<path d="M158.964 270.247C160.272 270.349 161.806 272.039 161.692 274.661C161.672 275.104 160.145 275.467 158.359 275.492H153.912V270.247H158.964Z" fill="#FF9269"/>
<path d="M155.053 251.091V254.372H163.511C164.902 254.377 166.674 252.136 166.674 250.266L155.053 251.091Z" fill="#FF754F"/>
<path d="M163.127 246.618C164.702 246.618 166.674 248.395 166.674 250.265C166.674 250.721 165.158 251.092 163.383 251.091H154.925L157.081 246.618H163.127Z" fill="#FF9269"/>
<path d="M153.912 259.227V262.246H161.339C162.73 262.251 165.141 260.272 165.141 258.401L153.912 259.227Z" fill="#FF754F"/>
<path d="M161.85 254.372C163.241 254.505 165.141 256.531 165.141 258.402C165.141 258.858 163.624 259.228 162.233 259.227H153.912V254.372H161.85Z" fill="#FF9269"/>
<path d="M153.912 267.357V270.248H159.167C161.38 270.248 163.353 268.402 163.353 266.531L153.912 267.357Z" fill="#FF754F"/>
<path d="M160.445 262.246C161.836 262.251 163.353 264.661 163.353 266.531C163.353 266.987 161.836 267.358 160.445 267.357H153.912V262.246L160.445 262.246Z" fill="#FF9269"/>
<path d="M156.825 275.491V278.047L128.855 278.053L126.635 271.665L156.825 275.491Z" fill="#FF754F"/>
<path d="M157.866 246.619V275.492H125.15L128.983 246.625H130.325C138.479 246.625 145.023 240.015 145.023 231.861C145.023 229.682 146.79 227.916 148.969 227.916C151.148 227.916 152.914 229.682 152.914 231.861C152.914 237.25 151.591 242.518 148.919 246.619H157.866Z" fill="#FF9269"/>
<path d="M130.26 246.625H122.626V278.054H130.26V246.625Z" fill="#FF0F47"/>
<path d="M118.823 245.519L115.754 245.51C115.677 245.51 115.613 245.446 115.613 245.369V230.084C115.613 229.721 115.408 229.389 115.084 229.227L111.604 227.487L115.084 225.747C115.408 225.585 115.613 225.253 115.613 224.89V221.058C115.613 220.98 115.677 220.916 115.754 220.916H158.138C158.216 220.916 158.279 220.98 158.279 221.058V242.645C158.279 243.174 158.708 243.603 159.238 243.603C159.767 243.603 160.196 243.174 160.196 242.645V221.057C160.196 219.923 159.273 219 158.138 219H115.754C114.62 219 113.697 219.923 113.697 221.057V224.298L109.033 226.63C108.708 226.792 108.503 227.124 108.503 227.487C108.503 227.85 108.708 228.182 109.033 228.344L113.697 230.676V245.369C113.697 246.503 114.62 247.426 115.752 247.426L118.818 247.435C118.819 247.435 118.82 247.435 118.82 247.435C119.348 247.435 119.777 247.008 119.779 246.48C119.78 245.951 119.352 245.521 118.823 245.519Z" fill="black"/>
<path d="M167.497 250.423C167.497 247.719 165.297 245.52 162.593 245.52L150.597 245.52C152.713 241.629 153.865 236.797 153.865 231.714C153.865 229.01 151.665 226.811 148.961 226.811C146.258 226.811 144.058 229.01 144.058 231.714C144.058 239.327 137.865 245.52 130.252 245.52H122.653C122.124 245.52 121.695 245.949 121.695 246.478V278.042C121.695 278.571 122.124 279 122.653 279H130.252C130.782 279 131.211 278.571 131.211 278.042V247.406C139.435 246.909 145.974 240.061 145.974 231.714C145.974 230.067 147.314 228.727 148.961 228.727C150.609 228.727 151.949 230.067 151.949 231.714C151.949 237.096 150.585 242.154 148.109 245.955C147.917 246.249 147.902 246.625 148.07 246.935C148.237 247.244 148.561 247.436 148.912 247.436L162.593 247.436C164.24 247.436 165.58 248.776 165.58 250.423C165.58 252.071 164.24 253.411 162.593 253.411H160.977H157.745C157.215 253.411 156.787 253.84 156.787 254.369C156.787 254.898 157.215 255.327 157.745 255.327H160.977C162.624 255.327 163.964 256.667 163.964 258.314C163.964 259.962 162.624 261.302 160.977 261.302H159.361H157.745C157.216 261.302 156.787 261.731 156.787 262.26C156.787 262.789 157.216 263.218 157.745 263.218H159.361C161.008 263.218 162.348 264.558 162.348 266.206C162.348 267.853 161.008 269.193 159.361 269.193H157.745C157.216 269.193 156.787 269.622 156.787 270.151C156.787 270.68 157.216 271.109 157.745 271.109C159.392 271.109 160.732 272.449 160.732 274.097C160.732 275.744 159.392 277.084 157.745 277.084H134.085C133.556 277.084 133.127 277.513 133.127 278.042C133.127 278.571 133.556 279.001 134.085 279.001H157.745C160.449 279.001 162.649 276.801 162.649 274.097C162.649 272.786 162.132 271.594 161.291 270.713C163.038 269.962 164.265 268.225 164.265 266.206C164.265 264.895 163.748 263.703 162.907 262.822C164.654 262.071 165.881 260.333 165.881 258.314C165.881 257.004 165.364 255.812 164.523 254.931C166.27 254.18 167.497 252.442 167.497 250.423ZM129.294 277.084H123.611V247.436H129.294V277.084Z" fill="black"/>
<path d="M154.87 274.209V250.31C154.87 249.781 154.441 249.352 153.912 249.352C153.383 249.352 152.954 249.781 152.954 250.31V274.208C152.954 274.738 153.383 275.167 153.912 275.167C154.441 275.167 154.87 274.738 154.87 274.209Z" fill="black"/>
</g>
<g clip-path="url(#clip3_5_3)">
<path d="M239.474 479.254L234.79 493.683L249.595 489.306L248.088 479.684L239.474 479.254Z" fill="#2F5E88"/>
<path d="M300.003 458.886H306.745C306.745 479.042 290.515 495.409 270.411 495.627L300.003 458.886Z" fill="#25BBCC"/>
<path d="M269.808 498.999C269.789 499 269.808 499 269.829 498.999C269.85 499 269.869 499 269.85 498.999C269.863 498.999 269.865 498.999 269.829 498.999C269.792 498.999 269.794 498.999 269.808 498.999Z" fill="#78E3EC"/>
<path d="M300.003 458.886H233.255C233.255 479.042 249.73 495.674 269.836 495.628C286.227 495.59 300.003 479.02 300.003 458.886Z" fill="#78E3EC"/>
<path d="M270.411 422.145L300.003 458.886H306.745C306.745 438.73 290.515 422.363 270.411 422.145Z" fill="#50D1DD"/>
<path d="M269.85 422.143C269.869 422.143 269.85 422.143 269.829 422.143C269.808 422.143 269.789 422.143 269.807 422.143C269.794 422.143 269.792 422.143 269.829 422.143C269.865 422.143 269.863 422.143 269.85 422.143Z" fill="#A0F6FA"/>
<path d="M269.836 422.144C249.73 422.097 233.255 438.729 233.255 458.886H300.003C300.003 438.751 286.227 422.181 269.836 422.144Z" fill="#A0F6FA"/>
<path d="M300.01 457.9H287.569C287.47 451.853 286.635 446.01 285.183 440.828H293.343C294.012 440.828 294.554 440.286 294.554 439.617C294.554 438.948 294.012 438.406 293.343 438.406H284.441C283.146 434.502 281.483 431.053 279.506 428.285C279.117 427.741 278.361 427.615 277.817 428.004C277.272 428.392 277.146 429.149 277.535 429.693C279.25 432.095 280.715 435.056 281.89 438.406H269.322V427.211C269.322 426.542 268.78 426 268.111 426C267.442 426 266.9 426.542 266.9 427.211V438.406H254.332C255.507 435.056 256.972 432.095 258.687 429.693C259.076 429.149 258.95 428.392 258.405 428.003C257.861 427.615 257.104 427.741 256.716 428.285C254.739 431.053 253.076 434.502 251.781 438.405H242.879C242.21 438.405 241.668 438.948 241.668 439.617C241.668 440.286 242.21 440.828 242.879 440.828H251.039C249.587 446.009 248.752 451.853 248.653 457.9H236.211C235.542 457.9 235 458.442 235 459.111C235 459.78 235.542 460.322 236.211 460.322H248.653C248.752 466.369 249.587 472.213 251.039 477.394H242.879C242.21 477.394 241.668 477.936 241.668 478.605C241.668 479.274 242.21 479.817 242.879 479.817H251.781C253.076 483.72 254.74 487.17 256.717 489.938C256.953 490.269 257.326 490.446 257.704 490.446C257.947 490.446 258.193 490.372 258.407 490.22C258.951 489.831 259.077 489.074 258.688 488.53C256.973 486.128 255.508 483.167 254.332 479.817H266.9V491.011C266.9 491.68 267.442 492.222 268.111 492.222C268.78 492.222 269.322 491.68 269.322 491.011V479.817H281.89C280.715 483.167 279.249 486.129 277.534 488.53C277.145 489.075 277.271 489.831 277.815 490.22C278.029 490.372 278.275 490.446 278.518 490.446C278.896 490.446 279.269 490.269 279.505 489.938C281.482 487.17 283.146 483.72 284.441 479.817H293.343C294.012 479.817 294.554 479.275 294.554 478.605C294.554 477.936 294.012 477.394 293.343 477.394H285.183C286.635 472.213 287.47 466.369 287.569 460.323H300.01C300.68 460.323 301.222 459.78 301.222 459.111C301.222 458.442 300.68 457.9 300.01 457.9ZM282.67 440.828C284.174 445.946 285.044 451.805 285.145 457.9H269.322V440.828H282.67ZM253.552 440.828H266.9V457.9H251.077C251.178 451.805 252.048 445.946 253.552 440.828ZM253.552 477.394C252.048 472.276 251.178 466.417 251.077 460.322H266.9V477.394H253.552ZM282.67 477.394H269.322V460.322H285.145C285.043 466.418 284.174 472.277 282.67 477.394Z" fill="black"/>
<path d="M296.839 432.117C289.671 424.948 280.139 421 270 421C259.862 421 250.33 424.948 243.161 432.117C235.992 439.286 232.044 448.818 232.044 458.957C232.044 466.43 234.207 473.638 238.305 479.843L233.667 493.758C233.522 494.193 233.635 494.673 233.959 494.997C234.284 495.322 234.763 495.435 235.199 495.29L249.114 490.652C255.319 494.75 262.527 496.913 270 496.913C280.139 496.913 289.67 492.965 296.839 485.796C304.008 478.627 307.957 469.095 307.957 458.956C307.957 448.818 304.009 439.286 296.839 432.117ZM270 494.49C262.814 494.49 255.891 492.354 249.978 488.314C249.775 488.175 249.536 488.103 249.295 488.103C249.166 488.103 249.037 488.124 248.912 488.165L236.731 492.226L240.791 480.045C240.911 479.686 240.856 479.291 240.642 478.978C236.602 473.066 234.467 466.143 234.467 458.957C234.467 439.363 250.407 423.423 270 423.423C289.594 423.423 305.534 439.363 305.534 458.957C305.534 478.55 289.594 494.49 270 494.49Z" fill="black"/>
</g>
</g>
<defs>
<radialGradient id="paint0_radial_5_3" cx="0" cy="0" r="1" gradientUnits="userSpaceOnUse" gradientTransform="translate(863.381 235.389) rotate(98.5109) scale(7.82297 8.37612)">
<stop stop-color="#BEDCDC"/>
<stop offset="0.5" stop-color="#8E9E9E" stop-opacity="0.74"/>
<stop offset="1" stop-color="#404F5C" stop-opacity="0.84"/>
</radialGradient>
<radialGradient id="paint1_radial_5_3" cx="0" cy="0" r="1" gradientUnits="userSpaceOnUse" gradientTransform="translate(887.963 259.967) rotate(98.5109) scale(11.2126 12.0055)">
<stop stop-color="#BEDCDC"/>
<stop offset="0.5" stop-color="#8E9E9E" stop-opacity="0.74"/>
<stop offset="1" stop-color="#404F5C" stop-opacity="0.84"/>
</radialGradient>
<clipPath id="clip0_5_3">
<rect width="1000" height="900" fill="white"/>
</clipPath>
<clipPath id="clip1_5_3">
<rect width="71" height="71" fill="white" transform="translate(327 105)"/>
</clipPath>
<clipPath id="clip2_5_3">
<rect width="60" height="60" fill="white" transform="translate(108 219)"/>
</clipPath>
<clipPath id="clip3_5_3">
<rect width="78" height="78" fill="white" transform="translate(231 421)"/>
</clipPath>
</defs>
</svg>
