<svg width="163" height="20" viewBox="0 0 163 20" fill="none" xmlns="http://www.w3.org/2000/svg">
<path d="M11.431 15.941H5.037L3.979 19H0.598L6.371 2.923H10.12L15.893 19H12.489L11.431 15.941ZM10.557 13.365L8.234 6.649L5.911 13.365H10.557ZM17.2229 12.629C17.2229 11.3103 17.4912 10.1603 18.0279 9.179C18.5645 8.18233 19.3082 7.41567 20.2589 6.879C21.2095 6.327 22.2982 6.051 23.5249 6.051C25.1042 6.051 26.4075 6.44967 27.4349 7.247C28.4775 8.029 29.1752 9.133 29.5279 10.559H26.0549C25.8709 10.007 25.5565 9.57767 25.1119 9.271C24.6825 8.949 24.1459 8.788 23.5019 8.788C22.5819 8.788 21.8535 9.12533 21.3169 9.8C20.7802 10.4593 20.5119 11.4023 20.5119 12.629C20.5119 13.8403 20.7802 14.7833 21.3169 15.458C21.8535 16.1173 22.5819 16.447 23.5019 16.447C24.8052 16.447 25.6562 15.8643 26.0549 14.699H29.5279C29.1752 16.079 28.4775 17.1753 27.4349 17.988C26.3922 18.8007 25.0889 19.207 23.5249 19.207C22.2982 19.207 21.2095 18.9387 20.2589 18.402C19.3082 17.85 18.5645 17.0833 18.0279 16.102C17.4912 15.1053 17.2229 13.9477 17.2229 12.629ZM43.7318 12.353C43.7318 12.813 43.7011 13.227 43.6398 13.595H34.3248C34.4015 14.515 34.7235 15.2357 35.2908 15.757C35.8581 16.2783 36.5558 16.539 37.3838 16.539C38.5798 16.539 39.4308 16.0253 39.9368 14.998H43.4098C43.0418 16.2247 42.3365 17.2367 41.2938 18.034C40.2511 18.816 38.9708 19.207 37.4528 19.207C36.2261 19.207 35.1221 18.9387 34.1408 18.402C33.1748 17.85 32.4158 17.0757 31.8638 16.079C31.3271 15.0823 31.0588 13.9323 31.0588 12.629C31.0588 11.3103 31.3271 10.1527 31.8638 9.156C32.4005 8.15933 33.1518 7.39267 34.1178 6.856C35.0838 6.31933 36.1955 6.051 37.4528 6.051C38.6641 6.051 39.7451 6.31167 40.6958 6.833C41.6618 7.35433 42.4055 8.098 42.9268 9.064C43.4635 10.0147 43.7318 11.111 43.7318 12.353ZM40.3968 11.433C40.3815 10.605 40.0825 9.94567 39.4998 9.455C38.9171 8.949 38.2041 8.696 37.3608 8.696C36.5635 8.696 35.8888 8.94133 35.3368 9.432C34.8001 9.90733 34.4705 10.5743 34.3478 11.433H40.3968ZM50.7806 10.95C50.7806 9.37067 51.1333 7.96 51.8386 6.718C52.5593 5.46067 53.5329 4.487 54.7596 3.797C56.0016 3.09167 57.3893 2.739 58.9226 2.739C60.7166 2.739 62.2883 3.199 63.6376 4.119C64.9869 5.039 65.9299 6.31167 66.4666 7.937H62.7636C62.3956 7.17033 61.8743 6.59533 61.1996 6.212C60.5403 5.82867 59.7736 5.637 58.8996 5.637C57.9643 5.637 57.1286 5.85933 56.3926 6.304C55.6719 6.73333 55.1046 7.34667 54.6906 8.144C54.2919 8.94133 54.0926 9.87667 54.0926 10.95C54.0926 12.008 54.2919 12.9433 54.6906 13.756C55.1046 14.5533 55.6719 15.1743 56.3926 15.619C57.1286 16.0483 57.9643 16.263 58.8996 16.263C59.7736 16.263 60.5403 16.0713 61.1996 15.688C61.8743 15.2893 62.3956 14.7067 62.7636 13.94H66.4666C65.9299 15.5807 64.9869 16.861 63.6376 17.781C62.3036 18.6857 60.7319 19.138 58.9226 19.138C57.3893 19.138 56.0016 18.793 54.7596 18.103C53.5329 17.3977 52.5593 16.424 51.8386 15.182C51.1333 13.94 50.7806 12.5293 50.7806 10.95ZM76.3929 6.074C77.3589 6.074 78.2176 6.28867 78.9689 6.718C79.7202 7.132 80.3029 7.753 80.7169 8.581C81.1462 9.39367 81.3609 10.375 81.3609 11.525V19H78.1409V11.962C78.1409 10.95 77.8879 10.1757 77.3819 9.639C76.8759 9.087 76.1859 8.811 75.3119 8.811C74.4225 8.811 73.7172 9.087 73.1959 9.639C72.6899 10.1757 72.4369 10.95 72.4369 11.962V19H69.2169V1.98H72.4369V7.845C72.8509 7.293 73.4029 6.86367 74.0929 6.557C74.7829 6.235 75.5495 6.074 76.3929 6.074ZM87.6429 8.236C88.0569 7.56133 88.5936 7.03233 89.2529 6.649C89.9276 6.26567 90.6943 6.074 91.5529 6.074V9.455H90.7019C89.6899 9.455 88.9233 9.69267 88.4019 10.168C87.8959 10.6433 87.6429 11.4713 87.6429 12.652V19H84.4229V6.258H87.6429V8.236ZM99.3798 19.207C98.1531 19.207 97.0491 18.9387 96.0678 18.402C95.0864 17.85 94.3121 17.0757 93.7448 16.079C93.1928 15.0823 92.9168 13.9323 92.9168 12.629C92.9168 11.3257 93.2004 10.1757 93.7678 9.179C94.3504 8.18233 95.1401 7.41567 96.1368 6.879C97.1334 6.327 98.2451 6.051 99.4718 6.051C100.698 6.051 101.81 6.327 102.807 6.879C103.803 7.41567 104.585 8.18233 105.153 9.179C105.735 10.1757 106.027 11.3257 106.027 12.629C106.027 13.9323 105.728 15.0823 105.13 16.079C104.547 17.0757 103.75 17.85 102.738 18.402C101.741 18.9387 100.622 19.207 99.3798 19.207ZM99.3798 16.401C99.9624 16.401 100.507 16.263 101.013 15.987C101.534 15.6957 101.948 15.2663 102.255 14.699C102.561 14.1317 102.715 13.4417 102.715 12.629C102.715 11.4177 102.393 10.49 101.749 9.846C101.12 9.18667 100.346 8.857 99.4258 8.857C98.5058 8.857 97.7314 9.18667 97.1028 9.846C96.4894 10.49 96.1828 11.4177 96.1828 12.629C96.1828 13.8403 96.4818 14.7757 97.0798 15.435C97.6931 16.079 98.4598 16.401 99.3798 16.401ZM115.45 6.074C116.968 6.074 118.194 6.557 119.13 7.523C120.065 8.47367 120.533 9.80767 120.533 11.525V19H117.313V11.962C117.313 10.95 117.06 10.1757 116.554 9.639C116.048 9.087 115.358 8.811 114.484 8.811C113.594 8.811 112.889 9.087 112.368 9.639C111.862 10.1757 111.609 10.95 111.609 11.962V19H108.389V6.258H111.609V7.845C112.038 7.293 112.582 6.86367 113.242 6.557C113.916 6.235 114.652 6.074 115.45 6.074ZM125.228 4.74C124.66 4.74 124.185 4.56367 123.802 4.211C123.434 3.843 123.25 3.39067 123.25 2.854C123.25 2.31733 123.434 1.87267 123.802 1.52C124.185 1.152 124.66 0.967999 125.228 0.967999C125.795 0.967999 126.263 1.152 126.631 1.52C127.014 1.87267 127.206 2.31733 127.206 2.854C127.206 3.39067 127.014 3.843 126.631 4.211C126.263 4.56367 125.795 4.74 125.228 4.74ZM126.815 6.258V19H123.595V6.258H126.815ZM129.168 12.629C129.168 11.3103 129.437 10.1603 129.973 9.179C130.51 8.18233 131.254 7.41567 132.204 6.879C133.155 6.327 134.244 6.051 135.47 6.051C137.05 6.051 138.353 6.44967 139.38 7.247C140.423 8.029 141.121 9.133 141.473 10.559H138C137.816 10.007 137.502 9.57767 137.057 9.271C136.628 8.949 136.091 8.788 135.447 8.788C134.527 8.788 133.799 9.12533 133.262 9.8C132.726 10.4593 132.457 11.4023 132.457 12.629C132.457 13.8403 132.726 14.7833 133.262 15.458C133.799 16.1173 134.527 16.447 135.447 16.447C136.751 16.447 137.602 15.8643 138 14.699H141.473C141.121 16.079 140.423 17.1753 139.38 17.988C138.338 18.8007 137.034 19.207 135.47 19.207C134.244 19.207 133.155 18.9387 132.204 18.402C131.254 17.85 130.51 17.0833 129.973 16.102C129.437 15.1053 129.168 13.9477 129.168 12.629ZM147.052 1.98V19H143.832V1.98H147.052ZM162.078 12.353C162.078 12.813 162.048 13.227 161.986 13.595H152.671C152.748 14.515 153.07 15.2357 153.637 15.757C154.205 16.2783 154.902 16.539 155.73 16.539C156.926 16.539 157.777 16.0253 158.283 14.998H161.756C161.388 16.2247 160.683 17.2367 159.64 18.034C158.598 18.816 157.317 19.207 155.799 19.207C154.573 19.207 153.469 18.9387 152.487 18.402C151.521 17.85 150.762 17.0757 150.21 16.079C149.674 15.0823 149.405 13.9323 149.405 12.629C149.405 11.3103 149.674 10.1527 150.21 9.156C150.747 8.15933 151.498 7.39267 152.464 6.856C153.43 6.31933 154.542 6.051 155.799 6.051C157.011 6.051 158.092 6.31167 159.042 6.833C160.008 7.35433 160.752 8.098 161.273 9.064C161.81 10.0147 162.078 11.111 162.078 12.353ZM158.743 11.433C158.728 10.605 158.429 9.94567 157.846 9.455C157.264 8.949 156.551 8.696 155.707 8.696C154.91 8.696 154.235 8.94133 153.683 9.432C153.147 9.90733 152.817 10.5743 152.694 11.433H158.743Z" fill="white"/>
</svg>
